<?xml version="1.0" encoding="UTF-8" standalone="no"?>
<svg
   xmlns:dc="http://purl.org/dc/elements/1.1/"
   xmlns:cc="http://creativecommons.org/ns#"
   xmlns:rdf="http://www.w3.org/1999/02/22-rdf-syntax-ns#"
   xmlns:svg="http://www.w3.org/2000/svg"
   xmlns="http://www.w3.org/2000/svg"
   xmlns:sodipodi="http://sodipodi.sourceforge.net/DTD/sodipodi-0.dtd"
   xmlns:inkscape="http://www.inkscape.org/namespaces/inkscape"
   width="5464"
   height="768"
   viewBox="0 0 5464 768"
   version="1.1"
   id="SVGRoot"
   sodipodi:docname="Background_1.svg"
   inkscape:version="1.0.2-2 (e86c870879, 2021-01-15)"
   inkscape:export-filename="C:\Users\ASUS\Desktop\TCC Final\assets_floaty_fishie\Background_1.png"
   inkscape:export-xdpi="96"
   inkscape:export-ydpi="96">
  <defs
     id="defs833" />
  <sodipodi:namedview
     id="base"
     pagecolor="#2f9ce9"
     bordercolor="#666666"
     borderopacity="1.0"
     inkscape:pageopacity="0"
     inkscape:pageshadow="2"
     inkscape:zoom="0.35"
     inkscape:cx="991.00881"
     inkscape:cy="621.81378"
     inkscape:document-units="px"
     inkscape:current-layer="layer2"
     inkscape:document-rotation="0"
     showgrid="false"
     inkscape:window-width="1366"
     inkscape:window-height="705"
     inkscape:window-x="1272"
     inkscape:window-y="252"
     inkscape:window-maximized="1" />
  <metadata
     id="metadata836">
    <rdf:RDF>
      <cc:Work
         rdf:about="">
        <dc:format>image/svg+xml</dc:format>
        <dc:type
           rdf:resource="http://purl.org/dc/dcmitype/StillImage" />
        <dc:title></dc:title>
      </cc:Work>
    </rdf:RDF>
  </metadata>
  <g
     inkscape:label="Layer 1"
     inkscape:groupmode="layer"
     id="layer1" />
  <g
     inkscape:groupmode="layer"
     id="layer2"
     inkscape:label="Fundo">
    <path
       style="fill:#aa4400;stroke:none;stroke-width:0.341548px;stroke-linecap:butt;stroke-linejoin:miter;stroke-opacity:1"
       d="m 4735.0692,730.33735 c 4.5339,0.60513 3.487,-11.14337 7.485,-13.78659 4.9699,-3.28565 14.573,5.90158 17.01,-0.2597 2.1983,-5.55801 -8.9453,-8.36282 -9.5248,-14.47864 -0.7195,-7.59298 12.566,-15.21569 8.1588,-20.71793 -4.5971,-5.73925 -11.6919,10.48604 -18.2587,9.43966 -6.5489,-1.04347 -9.5994,-18.2561 -15.5452,-14.79217 -6.4055,3.73171 3.6493,18.3396 0,25.69194 -2.2451,4.52313 -12.0863,2.26249 -11.5645,7.49346 0.7091,7.10813 12.8531,0.62196 17.2704,5.41747 3.5116,3.81225 0.2684,15.36512 4.969,15.9925 z"
       id="path2178-7-15"
       sodipodi:nodetypes="aaaaaaaaaaa" />
    <path
       style="fill:#008033;stroke:none;stroke-width:1px;stroke-linecap:butt;stroke-linejoin:miter;stroke-opacity:1"
       d="m 240,797.14286 c -19.47663,-30.15875 25.2929,-67.24958 40,-100 3.48959,-7.77078 10.60909,-14.3783 11.42857,-22.85714 1.71161,-17.70942 -13.70267,-33.64618 -14.28571,-51.42857 -0.76511,-23.33537 17.06943,-45.39007 14.28571,-68.57143 -2.64111,-21.99381 -29.26555,-37.85906 -28.57143,-60 0.92174,-29.40164 42.85715,-77.14286 42.85715,-77.14286 0,0 -8.10955,48.18609 -2.85715,71.42857 4.50735,19.94554 28.35846,33.83834 28.57143,54.28572 0.19962,19.16526 -24.06619,32.33326 -25.71428,51.42857 -1.71,19.81264 12.76324,37.74482 17.14285,57.14285 2.75877,12.21906 7.28998,24.71574 5.71429,37.14286 -2.73705,21.58652 -21.93231,38.57184 -25.71429,60 -2.98418,16.90796 14.92432,39.21514 2.85715,51.42857 C 290.30432,815.59675 251.89473,815.56136 240,797.14286 Z"
       id="path1982"
       sodipodi:nodetypes="aaaaaacaaaaaaaa" />
    <path
       style="fill:#008033;stroke:none;stroke-width:1px;stroke-linecap:butt;stroke-linejoin:miter;stroke-opacity:1"
       d="m 687.14286,794.28572 c -8.72325,-15.39665 18.81033,-31.07009 21.42857,-48.57143 2.98001,-19.91955 -7.46391,-39.86133 -7.14286,-60 0.25335,-15.89162 1.56551,-32.25995 7.14286,-47.14286 4.35752,-11.62785 16.86985,-19.41203 20,-31.42857 4.20811,-16.15477 0.96472,-33.74952 -2.85714,-50 -0.83026,-3.53024 -3.05762,-6.58771 -4.28572,-10 -5.71498,-15.87911 -15.42072,-31.73341 -14.28571,-48.57143 1.33323,-19.7786 21.05313,-34.72757 24.28571,-54.28571 5.84918,-35.38938 -10,-107.14286 -10,-107.14286 0,0 37.86191,63.10914 41.42858,98.57143 1.94387,19.32733 -8.82667,37.89307 -11.42858,57.14286 -2.68578,19.87026 -5.29669,39.97455 -4.28571,60 1.12102,22.20528 11.62642,43.48161 11.42857,65.71428 -0.11219,12.60731 -2.27803,25.51142 -7.14286,37.14286 -3.56762,8.52992 -12.37359,14.23581 -15.71428,22.85714 C 730.67748,691.56995 728.37392,706.1549 730,720 c 1.07277,9.13399 7.95862,16.74694 10,25.71429 4.13443,18.16164 17.76609,42.86056 4.28571,55.71429 -13.89258,13.24677 -47.6803,9.55866 -57.14285,-7.14286 z"
       id="path1984"
       sodipodi:nodetypes="aaaaaaaaacaaaaaaaaaa" />
    <path
       style="fill:#008033;fill-opacity:1;stroke:none;stroke-width:1px;stroke-linecap:butt;stroke-linejoin:miter;stroke-opacity:1"
       d="m 891.42857,804.28571 c -5.60962,-7.92863 5.48595,-18.86169 5.71429,-28.57142 0.37366,-15.88925 -7.21869,-31.2494 -7.14286,-47.14286 0.0713,-14.95252 6.69252,-29.33982 7.14286,-44.28572 0.4324,-14.35045 -5.28676,-28.53512 -4.28572,-42.85714 1.4012,-20.04723 13.62708,-38.48608 14.28572,-58.57143 0.90318,-27.5426 -17.32626,-54.03942 -14.28572,-81.42857 2.04908,-18.45804 18.01428,-33.17369 21.42857,-51.42857 3.50293,-18.7288 2.40814,-38.47957 -1.42857,-57.14286 C 909.75891,377.78612 895.71429,350 895.71429,350 c 0,0 33.69212,21.05007 44.28571,37.14286 8.20074,12.4578 13.30442,27.94913 12.85714,42.85714 -0.45631,15.20891 -11.30288,28.2949 -15.71428,42.85714 -4.11869,13.59597 -9.87087,27.22303 -10,41.42857 -0.19953,21.95039 14.39358,42.33469 14.28571,64.28572 -0.1033,21.02235 -13.90947,40.40933 -14.28571,61.42857 -0.35601,19.88881 11.53146,38.6797 11.42857,58.57143 -0.0855,16.52983 -12.3958,32.21592 -10,48.57143 2.03805,13.91326 18.34025,23.17941 20,37.14285 1.10428,9.29026 0.65299,21.97053 -7.14286,27.14286 -14.02895,9.30781 -40.27606,6.60093 -50,-7.14286 z"
       id="path1986"
       sodipodi:nodetypes="aaaaaaaaacaaaaaaaaaaa" />
    <path
       style="fill:#008033;stroke:none;stroke-width:1px;stroke-linecap:butt;stroke-linejoin:miter;stroke-opacity:1"
       d="m 1107.1429,481.42857 c -3.4088,15.80607 -9.0996,31.14201 -11.4286,47.14286 -2.6784,18.40193 -4.7179,37.21177 -2.8572,55.71428 1.7219,17.12251 13.1228,32.79318 12.8572,50 -0.2372,15.36962 -12.1708,28.92961 -12.8572,44.28572 -0.9967,22.29781 14.5456,43.45815 12.8572,65.71428 -1.4926,19.67523 -32.2527,40.24775 -20,55.71429 10.4168,13.14904 37.587,5.5695 50,-5.71429 11.8867,-10.80538 12.5964,-31.29014 10,-47.14285 -1.9668,-12.0085 -16.0166,-19.53128 -18.5714,-31.42857 -5.432,-25.29588 11.6696,-51.4565 8.5714,-77.14286 -2.4895,-20.63982 -19.5668,-37.86555 -21.4286,-58.57143 -2.2505,-25.02908 12.3236,-49.16133 12.8572,-74.28571 0.5506,-25.92359 -10,-77.14286 -10,-77.14286 0,0 -6.2198,35.32854 -10,52.85714 z"
       id="path1988"
       sodipodi:nodetypes="aaaaaaaaaaaaaca" />
    <path
       style="fill:#008033;stroke:none;stroke-width:1px;stroke-linecap:butt;stroke-linejoin:miter;stroke-opacity:1"
       d="m 1843.4575,815.76733 c -19.4767,-30.15872 25.2929,-67.24955 40,-99.99997 3.4896,-7.77078 10.6091,-14.3783 11.4285,-22.85714 1.7117,-17.70942 -13.7026,-33.64618 -14.2857,-51.42857 -0.7651,-23.33537 17.0695,-45.39007 14.2857,-68.57143 -2.6411,-21.99381 -29.2655,-37.85906 -28.5714,-60 0.9217,-29.40164 42.8572,-77.14286 42.8572,-77.14286 0,0 -8.1096,48.18609 -2.8572,71.42857 4.5074,19.94554 28.3585,33.83834 28.5714,54.28572 0.1997,19.16526 -24.0661,32.33326 -25.7142,51.42857 -1.71,19.81264 12.7632,37.74482 17.1428,57.14285 2.7588,12.21906 7.29,24.71574 5.7143,37.14286 -2.737,21.58652 -21.9323,38.57184 -25.7143,60 -2.9842,16.90796 14.9243,39.21514 2.8572,51.4286 -15.41,15.5967 -53.8196,15.5613 -65.7143,-2.8572 z"
       id="path1982-0"
       sodipodi:nodetypes="aaaaaacaaaaaaaa" />
    <path
       style="fill:#008033;stroke:none;stroke-width:1.0283px;stroke-linecap:butt;stroke-linejoin:miter;stroke-opacity:1"
       d="m 1698.3391,803.46834 c -8.7233,-16.28032 18.8103,-32.85331 21.4285,-51.35911 2.98,-21.0628 -7.4639,-42.14912 -7.1428,-63.44361 0.2533,-16.80369 1.5655,-34.11145 7.1428,-49.84855 4.3576,-12.29521 16.8699,-20.52615 20,-33.23237 4.2081,-17.08193 0.9648,-35.68652 -2.8571,-52.86966 -0.8303,-3.73285 -3.0576,-6.9658 -4.2857,-10.57394 -5.715,-16.79046 -15.4207,-33.55469 -14.2857,-51.3591 1.3332,-20.91376 21.0531,-36.72072 24.2857,-57.40136 5.8492,-37.4205 -10,-113.29215 -10,-113.29215 0,0 37.8619,66.73118 41.4286,104.22877 1.9438,20.43661 -8.8267,40.06789 -11.4286,60.42249 -2.6858,21.01068 -5.2967,42.26883 -4.2857,63.44361 1.121,23.47972 11.6264,45.97716 11.4285,69.48585 -0.1122,13.33088 -2.278,26.97561 -7.1428,39.27461 -3.5676,9.01948 -12.3736,15.05285 -15.7143,24.16899 -5.0368,13.74455 -7.3404,29.16657 -5.7143,43.80629 1.0728,9.65823 7.9586,17.70811 10,27.19013 4.1344,19.20399 17.7661,45.32047 4.2857,58.91191 -13.8926,14.00707 -47.6803,10.10729 -57.1428,-7.5528 z"
       id="path1984-0"
       sodipodi:nodetypes="aaaaaaaaacaaaaaaaaaa" />
    <path
       style="fill:#008033;fill-opacity:1;stroke:none;stroke-width:0.977738px;stroke-linecap:butt;stroke-linejoin:miter;stroke-opacity:1"
       d="m 2199.1124,809.28167 c -6.0059,-7.07943 5.8733,-16.84154 6.1178,-25.51134 0.4001,-14.18748 -7.7285,-27.90253 -7.6473,-42.09377 0.076,-13.35108 7.1652,-26.19746 7.6473,-39.54264 0.463,-12.81348 -5.6601,-25.47895 -4.5885,-38.26704 1.5002,-17.90014 14.5897,-34.36416 15.295,-52.29834 0.9668,-24.59273 -18.5503,-48.25169 -15.295,-72.70741 2.1938,-16.48115 19.2869,-29.62073 22.9423,-45.92047 3.7503,-16.72291 2.5783,-34.35833 -1.5296,-51.02275 -3.3169,-13.45689 -18.3537,-38.26707 -18.3537,-38.26707 0,0 36.0721,18.79557 47.414,33.1648 8.78,11.12354 14.2442,24.95572 13.7652,38.26705 -0.4884,13.58001 -12.1011,25.26447 -16.8242,38.26707 -4.4096,12.1398 -10.5681,24.30739 -10.7063,36.99148 -0.2137,19.59947 15.4102,37.80057 15.2948,57.40061 -0.1106,18.77082 -14.892,36.08141 -15.2948,54.84945 -0.3812,17.75868 12.3459,34.53702 12.2358,52.29832 -0.091,14.75945 -13.2714,28.76553 -10.7064,43.36934 2.1821,12.42313 19.6358,20.69685 21.4128,33.16479 1.1822,8.29524 0.6991,19.61746 -7.6474,24.2358 -15.02,8.31091 -43.1211,5.89393 -53.5318,-6.37788 z"
       id="path1986-4"
       sodipodi:nodetypes="aaaaaaaaacaaaaaaaaaaa" />
    <path
       style="fill:#008033;stroke:none;stroke-width:1.07257px;stroke-linecap:butt;stroke-linejoin:miter;stroke-opacity:1"
       d="m 2527.8519,444.19231 c -3.4088,18.18355 -9.0996,35.82627 -11.4286,54.2339 -2.6784,21.16988 -4.7179,42.80903 -2.8572,64.09461 1.7219,19.69802 13.1228,37.72581 12.8572,57.52081 -0.2372,17.68146 -12.1708,33.28109 -12.8572,50.94701 -0.9967,25.65176 14.5456,49.99496 12.8572,75.59877 -1.4926,22.63471 -32.2527,46.30167 -20,64.09459 10.4168,15.12694 37.587,6.40724 50,-6.57378 11.8867,-12.43068 12.5964,-35.99668 10,-54.23389 -1.9668,-13.81478 -16.0166,-22.46911 -18.5714,-36.15594 -5.432,-29.10079 11.6696,-59.19639 8.5714,-88.7464 -2.4895,-23.74438 -19.5668,-43.56114 -21.4286,-67.38152 -2.2505,-28.79386 12.3236,-56.55599 12.8572,-85.45948 0.5506,-29.82292 -10,-88.74639 -10,-88.74639 0,0 -6.2198,40.64252 -10,60.80771 z"
       id="path1988-9"
       sodipodi:nodetypes="aaaaaaaaaaaaaca" />
    <path
       style="fill:#008033;stroke:none;stroke-width:1px;stroke-linecap:butt;stroke-linejoin:miter;stroke-opacity:1"
       d="m 1276.8328,800.04082 c -15.4995,-16.8127 15.2718,-43.82036 16.1625,-66.67007 0.8237,-21.13025 -10.8695,-41.49711 -10.1016,-62.62946 0.955,-26.28114 18.8688,-50.48206 18.1828,-76.77159 -0.7504,-28.75937 -24.2437,-82.83251 -24.2437,-82.83251 0,0 49.5198,47.23772 56.5686,78.7919 4.0315,18.04708 -9.0458,36.0865 -10.1016,54.54823 -1.1177,19.54407 4.6639,39.02277 4.0406,58.58885 -0.9735,30.55726 9.2349,69.03712 -12.1218,90.91373 -9.0489,9.26919 -29.6056,15.58501 -38.3858,6.06092 z"
       id="path2022"
       sodipodi:nodetypes="aaaacaaaaa" />
    <path
       style="fill:#008033;stroke:none;stroke-width:0.856332px;stroke-linecap:butt;stroke-linejoin:miter;stroke-opacity:1"
       d="m 1457.9123,802.06112 c -11.4599,-22.60259 15.746,-51.45285 17.778,-78.7919 1.5509,-20.8671 -5.2203,-41.68214 -4.4445,-62.62946 1.1431,-30.86538 15.1142,-60.10456 13.3335,-90.91373 -1.1172,-19.32983 -13.9776,-35.19211 -14.815,-54.54823 -0.8676,-20.05562 10.2964,-38.49861 10.3705,-58.58885 0.099,-26.95389 -4.4436,-54.71777 -13.3335,-78.7919 -9.9255,-26.87872 -26.2848,-48.98372 -42.9635,-68.69037 -8.3873,-9.9099 -28.1485,-24.24366 -28.1485,-24.24366 0,0 34.6624,-6.09351 50.371,2.0203 18.0345,9.31522 31.603,30.88822 44.445,50.50763 13.7725,21.04096 30.2462,42.99409 34.0745,70.71068 3.0837,22.32524 -7.272,44.34865 -10.3705,66.67007 -2.2348,16.09946 -7.0029,32.16789 -5.926,48.48732 1.8341,27.79262 20.3967,50.89092 20.741,78.7919 0.2444,19.80352 -13.2427,36.7626 -13.3335,56.56854 -0.1259,27.47859 19.9009,51.46569 17.778,78.7919 -2.0263,26.08344 -11.2633,56.12931 -28.1485,68.69037 -13.8998,10.34024 -38.4033,13.71959 -47.408,-4.04061 z"
       id="path2024"
       sodipodi:nodetypes="aaaaaaaacaaaaaaaaaa" />
    <path
       style="fill:#008033;stroke:none;stroke-width:1.05078px;stroke-linecap:butt;stroke-linejoin:miter;stroke-opacity:1"
       d="m 2103.6262,811.02157 c 17.1135,-16.8127 -16.8621,-43.8204 -17.8455,-66.6701 -0.9095,-21.1302 12.0014,-41.49711 11.1535,-62.62946 -1.0545,-26.28114 -20.8337,-50.48206 -20.0762,-76.77159 0.8285,-28.75937 26.7682,-82.83251 26.7682,-82.83251 0,0 -54.6764,47.23772 -62.4592,78.7919 -4.4513,18.04708 9.9877,36.0865 11.1535,54.54823 1.2341,19.54407 -5.1496,39.02277 -4.4614,58.58883 1.0749,30.5573 -10.1965,69.0371 13.3841,90.9138 9.9912,9.2691 32.6885,15.585 42.383,6.0609 z"
       id="path2022-2"
       sodipodi:nodetypes="aaaacaaaaa" />
    <path
       style="fill:#008033;stroke:none;stroke-width:0.44144px;stroke-linecap:butt;stroke-linejoin:miter;stroke-opacity:1"
       d="m 2382.4041,817.95172 c 4.9993,-13.76851 -6.8691,-31.34285 -7.7556,-47.99657 -0.6765,-12.71132 2.2774,-25.39094 1.9389,-38.15113 -0.4987,-18.80184 -6.5935,-36.61306 -5.8167,-55.38065 0.4874,-11.77489 6.0977,-21.43749 6.463,-33.22839 0.3785,-12.217 -4.4917,-23.45166 -4.5241,-35.68975 -0.043,-16.41913 1.9385,-33.33167 5.8167,-47.99657 4.3299,-16.37334 11.4666,-29.83873 18.7426,-41.84316 3.6589,-6.03667 12.2796,-14.76817 12.2796,-14.76817 0,0 -15.1213,-3.7119 -21.974,1.23068 -7.8675,5.67442 -13.7867,18.81575 -19.3889,30.76703 -6.0082,12.81723 -13.1948,26.19011 -14.8649,43.07384 -1.3452,13.59956 3.1724,27.01525 4.5241,40.61248 0.9749,9.80708 3.055,19.59526 2.5852,29.53634 -0.8001,16.93005 -8.8979,31.00052 -9.0481,47.99657 -0.1067,12.06344 5.777,22.39416 5.8166,34.45907 0.055,16.73875 -8.6816,31.35064 -7.7555,47.99656 0.8839,15.88886 4.9135,34.19151 12.2796,41.84318 6.0637,6.29879 16.7532,8.35737 20.6815,-2.46136 z"
       id="path2024-7"
       sodipodi:nodetypes="aaaaaaaacaaaaaaaaaa" />
    <path
       style="fill:#008033;stroke:none;stroke-width:0.974006px;stroke-linecap:butt;stroke-linejoin:miter;stroke-opacity:1"
       d="m 4556.9125,806.01719 c 8.2757,-15.3966 -17.8451,-31.0701 -20.329,-48.5714 -2.8271,-19.9196 7.0809,-39.8613 6.7763,-60 -0.2403,-15.8916 -1.4852,-32.26 -6.7763,-47.1429 -4.1339,-11.6278 -16.0043,-19.412 -18.9738,-31.4285 -3.9921,-16.1548 -0.9152,-33.7496 2.7105,-50 0.7877,-3.5303 2.9008,-6.5878 4.0658,-10 5.4218,-15.8791 14.6295,-31.7334 13.5527,-48.5715 -1.2648,-19.7786 -19.9728,-34.7275 -23.0395,-54.2857 -5.549,-35.3894 9.4868,-107.1428 9.4868,-107.1428 0,0 -35.9191,63.1091 -39.3028,98.5714 -1.8441,19.3273 8.3738,37.8931 10.8422,57.1429 2.548,19.8702 5.0249,39.9745 4.0658,60 -1.0635,22.2052 -11.0299,43.4816 -10.8421,65.7142 0.1064,12.6073 2.1611,25.5114 6.7763,37.1429 3.3845,8.5299 11.7387,14.2358 14.908,22.8571 4.7783,12.9986 6.9637,27.5835 5.421,41.4286 -1.0177,9.134 -7.5502,16.7469 -9.4868,25.7143 -3.9223,18.1616 -16.8545,42.8606 -4.0658,55.7143 13.1797,13.2468 45.2337,9.5586 54.2107,-7.1429 z"
       id="path1984-8"
       sodipodi:nodetypes="aaaaaaaaacaaaaaaaaaa" />
    <path
       style="fill:#008033;fill-opacity:1;stroke:none;stroke-width:0.974006px;stroke-linecap:butt;stroke-linejoin:miter;stroke-opacity:1"
       d="m 4306.1877,821.73149 c 5.3218,-7.9286 -5.2044,-18.8617 -5.4211,-28.5714 -0.3544,-15.8893 6.8483,-31.2494 6.7764,-47.1429 -0.067,-14.9525 -6.3491,-29.3398 -6.7764,-44.2857 -0.4102,-14.3504 5.0155,-28.5351 4.0659,-42.8571 -1.3293,-20.0473 -12.9279,-38.4861 -13.5528,-58.5715 -0.8567,-27.5426 16.4373,-54.0394 13.5528,-81.4285 -1.9439,-18.4581 -17.0899,-33.1737 -20.3291,-51.4286 -3.3231,-18.7288 -2.2845,-38.4796 1.3553,-57.1429 2.9393,-15.071 16.2632,-42.8571 16.2632,-42.8571 0,0 -31.9633,21.0501 -42.0133,37.1429 -7.7799,12.4578 -12.6217,27.9491 -12.1974,42.8571 0.4329,15.2089 10.7228,28.2949 14.9079,42.8571 3.9073,13.596 9.3644,27.2231 9.4869,41.4286 0.1893,21.9504 -13.655,42.3347 -13.5527,64.2857 0.098,21.0224 13.1958,40.4093 13.5527,61.4286 0.3378,19.8888 -10.9397,38.6797 -10.8421,58.5714 0.082,16.5298 11.7597,32.2159 9.4869,48.5715 -1.9336,13.9132 -17.3993,23.1794 -18.9738,37.1428 -1.0476,9.2903 -0.6195,21.9705 6.7763,27.1429 13.3091,9.3078 38.2095,6.6009 47.4344,-7.1429 z"
       id="path1986-8"
       sodipodi:nodetypes="aaaaaaaaacaaaaaaaaaaa" />
    <path
       style="fill:#008033;stroke:none;stroke-width:0.974006px;stroke-linecap:butt;stroke-linejoin:miter;stroke-opacity:1"
       d="m 4101.5421,498.87439 c 3.2339,15.806 8.6326,31.142 10.8421,47.1428 2.541,18.402 4.4759,37.2118 2.7106,55.7143 -1.6335,17.1225 -12.4494,32.7932 -12.1974,50 0.225,15.3696 11.5463,28.9296 12.1974,44.2857 0.9456,22.2978 -13.7992,43.4582 -12.1974,65.7143 1.416,19.6752 30.5977,40.2478 18.9737,55.7143 -9.8823,13.149 -35.6583,5.5695 -47.4344,-5.7143 -11.2768,-10.8054 -11.9501,-31.2901 -9.4869,-47.1428 1.8659,-12.0085 15.1948,-19.5313 17.6185,-31.4286 5.1533,-25.2959 -11.0708,-51.4565 -8.1316,-77.1429 2.3618,-20.6398 18.5628,-37.8655 20.3291,-58.5714 2.135,-25.0291 -11.6913,-49.1613 -12.1975,-74.2857 -0.5224,-25.9236 9.4869,-77.1429 9.4869,-77.1429 0,0 5.9006,35.3286 9.4869,52.8572 z"
       id="path1988-4"
       sodipodi:nodetypes="aaaaaaaaaaaaaca" />
    <path
       style="fill:#008033;stroke:none;stroke-width:0.974006px;stroke-linecap:butt;stroke-linejoin:miter;stroke-opacity:1"
       d="m 3403.0089,833.21309 c 18.4774,-30.1587 -23.995,-67.2495 -37.9475,-99.9999 -3.3105,-7.7708 -10.0647,-14.3783 -10.8421,-22.8572 -1.6238,-17.7094 12.9995,-33.6462 13.5527,-51.4286 0.7258,-23.3353 -16.1936,-45.39 -13.5527,-68.5714 2.5056,-21.9938 27.7639,-37.859 27.1054,-60 -0.8744,-29.4016 -40.6581,-77.1428 -40.6581,-77.1428 0,0 7.6934,48.186 2.7105,71.4285 -4.2761,19.9456 -26.9033,33.8384 -27.1053,54.2857 -0.1895,19.1653 22.8312,32.3333 24.3948,51.4286 1.6222,19.8127 -12.1083,37.7448 -16.2632,57.1429 -2.6173,12.219 -6.916,24.7157 -5.4211,37.1428 2.5965,21.5865 20.8069,38.5719 24.3948,60 2.8311,16.908 -14.1585,39.2152 -2.7105,51.4286 14.6192,15.5967 51.058,15.5613 62.3423,-2.8572 z"
       id="path1982-0-0"
       sodipodi:nodetypes="aaaaaacaaaaaaaa" />
    <path
       style="fill:#008033;stroke:none;stroke-width:1.00157px;stroke-linecap:butt;stroke-linejoin:miter;stroke-opacity:1"
       d="m 3540.6811,820.91409 c 8.2757,-16.2803 -17.8451,-32.8533 -20.329,-51.3591 -2.8271,-21.0628 7.0809,-42.1491 6.7763,-63.4436 -0.2403,-16.8037 -1.4852,-34.1114 -6.7763,-49.8485 -4.134,-12.2953 -16.0043,-20.5262 -18.9738,-33.2324 -3.9921,-17.0819 -0.9152,-35.6865 2.7105,-52.8697 0.7877,-3.7328 2.9008,-6.9658 4.0658,-10.5739 5.4218,-16.7905 14.6295,-33.5547 13.5527,-51.3591 -1.2648,-20.9138 -19.9728,-36.7207 -23.0395,-57.4014 -5.5491,-37.4205 9.4868,-113.2921 9.4868,-113.2921 0,0 -35.9191,66.7312 -39.3028,104.2287 -1.8441,20.4367 8.3738,40.0679 10.8422,60.4225 2.548,21.0107 5.0249,42.2689 4.0658,63.4437 -1.0635,23.4797 -11.0298,45.9771 -10.8421,69.4858 0.1064,13.3309 2.1611,26.9756 6.7763,39.2746 3.3845,9.0195 11.7387,15.0529 14.908,24.169 4.7783,13.7446 6.9637,29.1666 5.4211,43.8063 -1.0178,9.6582 -7.5503,17.7081 -9.4869,27.1901 -3.9223,19.204 -16.8545,45.3205 -4.0658,58.9119 13.1797,14.0071 45.2337,10.1073 54.2107,-7.5528 z"
       id="path1984-0-4"
       sodipodi:nodetypes="aaaaaaaaacaaaaaaaaaa" />
    <path
       style="fill:#008033;fill-opacity:1;stroke:none;stroke-width:0.952323px;stroke-linecap:butt;stroke-linejoin:miter;stroke-opacity:1"
       d="m 2911.3176,821.0132 c 5.6977,-7.0795 -5.572,-16.8416 -5.8039,-25.5114 -0.3796,-14.1875 7.3319,-27.9025 7.2549,-42.0938 -0.072,-13.351 -6.7975,-26.1974 -7.2549,-39.5426 -0.4393,-12.8135 5.3697,-25.4789 4.353,-38.267 -1.4232,-17.9002 -13.841,-34.3642 -14.5101,-52.2984 -0.9172,-24.5927 17.5984,-48.2517 14.5101,-72.7074 -2.0812,-16.4811 -18.2972,-29.6207 -21.765,-45.9204 -3.5579,-16.723 -2.4461,-34.3584 1.4511,-51.0228 3.1467,-13.4569 17.4119,-38.2671 17.4119,-38.2671 0,0 -34.2212,18.7956 -44.9811,33.1648 -8.3295,11.1236 -13.5133,24.9558 -13.0589,38.2671 0.4634,13.58 11.4802,25.2645 15.9609,38.2671 4.1834,12.1398 10.0259,24.3073 10.157,36.9914 0.2027,19.5995 -14.6195,37.8006 -14.51,57.4006 0.1049,18.7709 14.1278,36.0815 14.51,54.8495 0.3616,17.7587 -11.7124,34.537 -11.608,52.2983 0.086,14.7595 12.5904,28.7655 10.1571,43.3694 -2.0702,12.4231 -18.6283,20.6968 -20.3141,33.1647 -1.1216,8.2953 -0.6632,19.6175 7.255,24.2358 14.2493,8.311 40.9085,5.894 50.785,-6.3778 z"
       id="path1986-4-0"
       sodipodi:nodetypes="aaaaaaaaacaaaaaaaaaaa" />
    <path
       style="fill:#008033;stroke:none;stroke-width:1.32611px;stroke-linecap:butt;stroke-linejoin:miter;stroke-opacity:1"
       d="m 3033.7319,224.13516 c 3.2339,29.29981 8.6327,57.72806 10.8422,87.38881 2.541,34.11173 4.4758,68.9795 2.7106,103.27766 -1.6335,31.74001 -12.4494,60.78876 -12.1975,92.68508 0.2251,28.49076 11.5463,53.62689 12.1975,82.09252 0.9456,41.33356 -13.7992,80.55853 -12.1975,121.81474 1.416,36.47201 30.5978,74.6074 18.9738,103.27767 -9.8823,24.37445 -35.6584,10.32412 -47.4344,-10.59258 -11.2768,-20.02998 -11.9501,-58.00262 -9.4869,-87.3888 1.8659,-22.26023 15.1948,-36.20518 17.6185,-58.25915 5.1532,-46.89104 -11.0708,-95.38504 -8.1316,-142.99989 2.3617,-38.26011 18.5628,-70.19153 20.329,-108.57394 2.1351,-46.39652 -11.6912,-91.13048 -12.1974,-137.7036 -0.5224,-48.05459 9.4868,-142.9999 9.4868,-142.9999 0,0 5.9007,65.48855 9.4869,97.98138 z"
       id="path1988-9-9"
       sodipodi:nodetypes="aaaaaaaaaaaaaca" />
    <path
       style="fill:#008033;stroke:none;stroke-width:0.974006px;stroke-linecap:butt;stroke-linejoin:miter;stroke-opacity:1"
       d="m 3940.5592,817.48659 c 14.7042,-16.8127 -14.4882,-43.8203 -15.3332,-66.6701 -0.7814,-21.1302 10.3118,-41.4971 9.5833,-62.6294 -0.906,-26.2812 -17.9006,-50.4821 -17.2498,-76.7716 0.7119,-28.7594 22.9997,-82.8325 22.9997,-82.8325 0,0 -46.9788,47.2377 -53.666,78.7919 -3.8246,18.0471 8.5817,36.0865 9.5833,54.5482 1.0604,19.5441 -4.4246,39.0228 -3.8333,58.5889 0.9236,30.5572 -8.761,69.0371 11.4998,90.9137 8.5846,9.2692 28.0865,15.585 36.4162,6.0609 z"
       id="path2022-3"
       sodipodi:nodetypes="aaaacaaaaa" />
    <path
       style="fill:#008033;stroke:none;stroke-width:0.834073px;stroke-linecap:butt;stroke-linejoin:miter;stroke-opacity:1"
       d="m 3768.7712,819.50689 c 10.8719,-22.6026 -14.9381,-51.4528 -16.8658,-78.7919 -1.4713,-20.8671 4.9525,-41.6821 4.2165,-62.6294 -1.0845,-30.8654 -14.3387,-60.1046 -12.6494,-90.9138 1.0599,-19.3298 13.2604,-35.1921 14.0548,-54.5482 0.8231,-20.0556 -9.768,-38.4986 -9.8383,-58.5889 -0.094,-26.9538 4.2156,-54.7177 12.6493,-78.7919 9.4162,-26.8787 24.9361,-48.9837 40.759,-68.6903 7.9569,-9.90993 26.7041,-24.24369 26.7041,-24.24369 0,0 -32.8838,-6.09351 -47.7864,2.0203 -17.1091,9.31522 -29.9813,30.88819 -42.1644,50.50759 -13.0658,21.041 -28.6942,42.9941 -32.3261,70.7107 -2.9255,22.3253 6.8989,44.3487 9.8384,66.6701 2.1201,16.0995 6.6436,32.1679 5.6219,48.4873 -1.74,27.7926 -19.3501,50.8909 -19.6767,78.7919 -0.2319,19.8035 12.5632,36.7626 12.6493,56.5685 0.1194,27.4786 -18.8797,51.4657 -16.8658,78.7919 1.9223,26.0835 10.6854,56.1294 26.7042,68.6904 13.1866,10.3403 36.4327,13.7196 44.9754,-4.0406 z"
       id="path2024-9"
       sodipodi:nodetypes="aaaaaaaacaaaaaaaaaa" />
    <path
       style="fill:#008033;stroke:none;stroke-width:1.35839px;stroke-linecap:butt;stroke-linejoin:miter;stroke-opacity:1"
       d="m 3156.1899,824.86393 c -16.2354,-29.6167 15.9969,-77.19257 16.9298,-117.44384 0.8629,-37.22226 -11.3855,-73.10009 -10.5812,-110.32605 1.0004,-46.29592 19.7647,-88.9276 19.0461,-135.23831 -0.786,-50.66161 -25.3947,-145.91499 -25.3947,-145.91499 0,0 51.8709,83.21237 59.2543,138.7972 4.2229,31.79117 -9.4752,63.56878 -10.5812,96.0903 -1.1707,34.42824 4.8854,68.74128 4.2325,103.20827 -1.0197,53.82873 9.6733,121.61347 -12.6973,160.15074 -9.4786,16.32814 -31.0112,27.45402 -40.2083,10.67668 z"
       id="path2022-2-9"
       sodipodi:nodetypes="aaaacaaaaa" />
    <path
       style="fill:#008033;stroke:none;stroke-width:0.713778px;stroke-linecap:butt;stroke-linejoin:miter;stroke-opacity:1"
       d="m 2703.1054,828.57882 c -6.9111,-26.03971 9.4958,-59.27715 10.7213,-90.7737 0.9352,-24.04028 -3.1482,-48.02061 -2.6803,-72.15337 0.6893,-35.55896 9.1149,-69.24463 8.0409,-104.73872 -0.6736,-22.26931 -8.4294,-40.54373 -8.9343,-62.8433 -0.5233,-23.10544 6.2093,-44.35309 6.254,-67.49843 0.06,-31.05267 -2.6797,-63.03849 -8.041,-90.77352 -5.9856,-30.96624 -15.8514,-56.43271 -25.9098,-79.13607 -5.058,-11.41692 -16.9753,-27.9304 -16.9753,-27.9304 0,0 20.9037,-7.02014 30.3769,2.32757 10.8761,10.73172 19.0588,35.58543 26.8032,58.18817 8.3058,24.24076 18.2406,49.5321 20.5494,81.46364 1.8595,25.72009 -4.3857,51.09257 -6.2542,76.8085 -1.3477,18.54752 -4.2232,37.05948 -3.5739,55.86061 1.1062,32.01891 12.3006,58.62978 12.5083,90.7737 0.1474,22.81494 -7.9862,42.35291 -8.041,65.17068 -0.076,31.6573 12.0016,59.2921 10.7213,90.77371 -1.222,30.04992 -6.7925,64.66476 -16.9753,79.13606 -8.3826,11.91263 -23.1598,15.80577 -28.5902,-4.65513 z"
       id="path2024-7-9"
       sodipodi:nodetypes="aaaaaaaacaaaaaaaaaa" />
    <path
       style="fill:#008033;stroke:none;stroke-width:1.27968px;stroke-linecap:butt;stroke-linejoin:miter;stroke-opacity:1"
       d="m 5357.4846,415.75775 c 4.2624,20.69955 11.3785,40.78343 14.2909,61.73806 3.3491,24.09908 5.8995,48.73236 3.5727,72.96316 -2.153,22.42356 -16.4095,42.9458 -16.0773,65.47977 0.2966,20.12798 15.219,37.88608 16.0773,57.99637 1.2465,29.20111 -18.1885,56.91259 -16.0773,86.05911 1.8664,25.76659 40.3305,52.70827 25.0092,72.96317 -13.0259,17.21993 -47.0009,7.2938 -62.5229,-7.4834 -14.8638,-14.15068 -15.7511,-40.97742 -12.5045,-61.73806 2.4594,-15.72627 20.028,-25.57807 23.2227,-41.15871 6.7925,-33.12736 -14.5923,-67.38719 -10.7182,-101.02592 3.113,-27.02981 24.4675,-49.58855 26.7955,-76.70487 2.8142,-32.77797 -15.4101,-64.38145 -16.0773,-97.28422 -0.6884,-33.94941 12.5046,-101.02593 12.5046,-101.02593 0,0 7.7775,46.26609 12.5046,69.22147 z"
       id="path1988-1"
       sodipodi:nodetypes="aaaaaaaaaaaaaca" />
    <path
       style="fill:#008033;stroke:none;stroke-width:1.09263px;stroke-linecap:butt;stroke-linejoin:miter;stroke-opacity:1"
       d="m 5116.0251,816.61403 c 14.5185,-48.30127 -18.8539,-107.70478 -29.8169,-160.15684 -2.6012,-12.44543 -7.9083,-23.02783 -8.5191,-36.60728 -1.2759,-28.36285 10.2142,-53.88667 10.6489,-82.36639 0.5704,-37.3732 -12.724,-72.69532 -10.6489,-109.82187 1.9688,-35.2246 21.8152,-60.63389 21.2978,-96.09413 -0.687,-47.08875 -31.9468,-123.5496 -31.9468,-123.5496 0,0 6.0451,77.17334 2.1298,114.39777 -3.3599,31.94416 -21.1391,54.19443 -21.2978,86.94232 -0.1488,30.69448 17.9395,51.78394 19.168,82.3664 1.2747,31.7313 -9.514,60.45092 -12.7787,91.5182 -2.0564,19.56967 -5.4341,39.58396 -4.2596,59.48685 2.0402,34.5723 16.3489,61.77546 19.1681,96.09413 2.2246,27.07926 -11.1249,62.80574 -2.1298,82.36644 11.487,24.97919 40.1185,24.92249 48.985,-4.576 z"
       id="path1982-0-8"
       sodipodi:nodetypes="aaaaaacaaaaaaaa" />
    <path
       style="fill:#008033;stroke:none;stroke-width:0.8548px;stroke-linecap:butt;stroke-linejoin:miter;stroke-opacity:1"
       d="m 4878.4,846.01349 c -8.438,-11.63049 18.195,-23.47006 20.7276,-36.69041 2.8824,-15.04705 -7.2198,-30.11089 -6.9092,-45.32345 0.2451,-12.00438 1.5143,-24.36887 6.9092,-35.61129 4.215,-8.78357 16.318,-14.66366 19.3458,-23.74085 4.0704,-12.20316 0.9331,-25.49408 -2.7637,-37.76954 -0.8031,-2.6667 -2.9576,-4.97629 -4.1455,-7.55391 -5.5281,-11.99493 -14.9163,-23.97112 -13.8185,-36.6904 1.2897,-14.94057 20.3645,-26.2329 23.4914,-41.00693 5.6578,-26.73282 -9.6729,-80.93473 -9.6729,-80.93473 0,0 36.6234,47.67206 40.0734,74.45994 1.8801,14.5997 -8.538,28.62408 -11.0548,43.1652 -2.5979,15.00981 -5.1234,30.19641 -4.1455,45.32345 1.0844,16.77367 11.2461,32.8456 11.0546,49.63996 -0.1081,9.52345 -2.2034,19.2711 -6.9091,28.05737 -3.4509,6.44343 -11.9689,10.7536 -15.2002,17.26608 -4.8721,9.81896 -7.1003,20.83629 -5.5274,31.29475 1.0377,6.89974 7.6983,12.65049 9.6729,19.42435 3.9991,13.71913 17.1849,32.37647 4.1455,42.08605 -13.4382,10.0065 -46.1206,7.22054 -55.2736,-5.39564 z"
       id="path1984-0-7"
       sodipodi:nodetypes="aaaaaaaaacaaaaaaaaaa" />
    <path
       style="fill:#008033;stroke:none;stroke-width:0.8971px;stroke-linecap:butt;stroke-linejoin:miter;stroke-opacity:1"
       d="m 5231.752,835.14853 c 12.4738,-16.8127 -12.2906,-43.82036 -13.0074,-66.67007 -0.6629,-21.13025 8.7476,-41.49711 8.1296,-62.62946 -0.7685,-26.28114 -15.1854,-50.48206 -14.6333,-76.77159 0.6039,-28.75937 19.5111,-82.83251 19.5111,-82.83251 0,0 -39.853,47.23772 -45.5258,78.7919 -3.2445,18.04708 7.2799,36.0865 8.1296,54.54823 0.8995,19.54407 -3.7534,39.02277 -3.2518,58.58885 0.7835,30.55726 -7.4321,69.03712 9.7555,90.91373 7.2825,9.26919 23.8263,15.58501 30.8925,6.06092 z"
       id="path2022-9"
       sodipodi:nodetypes="aaaacaaaaa" />
    <path
       style="fill:#008033;stroke:none;stroke-width:0.768216px;stroke-linecap:butt;stroke-linejoin:miter;stroke-opacity:1"
       d="m 4751.7354,817.16883 c 9.2229,-22.60259 -12.6722,-51.45285 -14.3075,-78.7919 -1.2481,-20.8671 4.2012,-41.68214 3.5769,-62.62946 -0.92,-30.86538 -12.1638,-60.10456 -10.7307,-90.91373 0.8991,-19.32983 11.2491,-35.19211 11.923,-54.54823 0.6982,-20.05562 -8.2864,-38.49861 -8.3461,-58.58885 -0.08,-26.95389 3.5762,-54.71777 10.7307,-78.7919 7.9879,-26.87872 21.1537,-48.98372 34.5765,-68.69037 6.75,-9.9099 22.6536,-24.24366 22.6536,-24.24366 0,0 -27.8959,-6.09351 -40.538,2.0203 -14.514,9.31522 -25.4337,30.88822 -35.7688,50.50763 -11.084,21.04096 -24.3419,42.99409 -27.4228,70.71068 -2.4818,22.32524 5.8524,44.34865 8.346,66.67007 1.7986,16.09946 5.6359,32.16789 4.7692,48.48732 -1.4761,27.79262 -16.415,50.89092 -16.6921,78.7919 -0.1967,19.80352 10.6576,36.7626 10.7306,56.56854 0.1014,27.47859 -16.016,51.46569 -14.3075,78.7919 1.6307,26.08344 9.0646,56.12931 22.6536,68.69037 11.1864,10.34024 30.9066,13.71959 38.1534,-4.04061 z"
       id="path2024-8"
       sodipodi:nodetypes="aaaaaaaacaaaaaaaaaa" />
    <path
       style="fill:#008033;stroke:none;stroke-width:1px;stroke-linecap:butt;stroke-linejoin:miter;stroke-opacity:1"
       d="m 74.775939,502.25057 c -3.4088,15.80607 -9.0996,31.14201 -11.4286,47.14286 -2.6784,18.40193 -4.7179,37.21177 -2.8572,55.71428 1.7219,17.12251 13.1228,32.79318 12.8572,50 -0.2372,15.36962 -12.1708,28.92961 -12.8572,44.28572 -0.9967,22.29781 14.5456,43.45815 12.8572,65.71428 -1.4926,19.67523 -32.2527,40.24775 -20,55.71429 10.4168,13.14904 37.587,5.5695 50.000001,-5.71429 11.8867,-10.80538 12.5964,-31.29014 10,-47.14285 -1.9668,-12.0085 -16.016601,-19.53128 -18.571401,-31.42857 -5.432,-25.29588 11.669601,-51.4565 8.571401,-77.14286 -2.4895,-20.63982 -19.566801,-37.86555 -21.428601,-58.57143 -2.2505,-25.02908 12.3236,-49.16133 12.8572,-74.28571 0.5506,-25.92359 -10,-77.14286 -10,-77.14286 0,0 -6.2198,35.32854 -10,52.85714 z"
       id="path1988-8"
       sodipodi:nodetypes="aaaaaaaaaaaaaca" />
    <path
       style="fill:#008033;stroke:none;stroke-width:1px;stroke-linecap:butt;stroke-linejoin:miter;stroke-opacity:1"
       d="m 519.66197,785.16076 c -19.4767,-30.15872 25.2929,-67.24955 40,-99.99997 3.4896,-7.77078 10.6091,-14.3783 11.4285,-22.85714 1.7117,-17.70942 -13.7026,-33.64618 -14.2857,-51.42857 -0.7651,-23.33537 17.0695,-45.39007 14.2857,-68.57143 -2.6411,-21.99381 -29.2655,-37.85906 -28.5714,-60 0.9217,-29.40164 42.8572,-77.14286 42.8572,-77.14286 0,0 -8.1096,48.18609 -2.8572,71.42857 4.5074,19.94554 28.3585,33.83834 28.5714,54.28572 0.1997,19.16526 -24.0661,32.33326 -25.7142,51.42857 -1.71,19.81264 12.7632,37.74482 17.1428,57.14285 2.7588,12.21906 7.29,24.71574 5.7143,37.14286 -2.737,21.58652 -21.9323,38.57184 -25.7143,60 -2.9842,16.90796 14.9243,39.21514 2.8572,51.4286 -15.41,15.59667 -53.8196,15.56127 -65.7143,-2.8572 z"
       id="path1982-0-6"
       sodipodi:nodetypes="aaaaaacaaaaaaaa" />
    <path
       style="fill:#008033;stroke:none;stroke-width:1.0283px;stroke-linecap:butt;stroke-linejoin:miter;stroke-opacity:1"
       d="m 380.25785,804.29034 c -8.7233,-16.28032 18.8103,-32.85331 21.4285,-51.35911 2.98,-21.0628 -7.4639,-42.14912 -7.1428,-63.44361 0.2533,-16.80369 1.5655,-34.11145 7.1428,-49.84855 4.3576,-12.29521 16.8699,-20.52615 20,-33.23237 4.2081,-17.08193 0.9648,-35.68652 -2.8571,-52.86966 -0.8303,-3.73285 -3.0576,-6.9658 -4.2857,-10.57394 -5.715,-16.79046 -15.4207,-33.55469 -14.2857,-51.3591 1.3332,-20.91376 21.0531,-36.72072 24.2857,-57.40136 5.8492,-37.4205 -10,-113.29215 -10,-113.29215 0,0 37.8619,66.73118 41.4286,104.22877 1.9438,20.43661 -8.8267,40.06789 -11.4286,60.42249 -2.6858,21.01068 -5.2967,42.26883 -4.2857,63.44361 1.121,23.47972 11.6264,45.97716 11.4285,69.48585 -0.1122,13.33088 -2.278,26.97561 -7.1428,39.27461 -3.5676,9.01948 -12.3736,15.05285 -15.7143,24.16899 -5.0368,13.74455 -7.3404,29.16657 -5.7143,43.80629 1.0728,9.65823 7.9586,17.70811 10,27.19013 4.1344,19.20399 17.7661,45.32047 4.2857,58.91191 -13.8926,14.00706 -47.6803,10.10726 -57.1428,-7.5528 z"
       id="path1984-0-2"
       sodipodi:nodetypes="aaaaaaaaacaaaaaaaaaa" />
    <path
       style="fill:#aa4400;stroke:none;stroke-width:0.448575px;stroke-linecap:butt;stroke-linejoin:miter;stroke-opacity:1"
       d="m 199.38411,421.19873 c -5.79955,-0.81599 -4.46052,15.02648 -9.57462,18.5908 -6.35713,4.43065 -18.64105,-7.95811 -21.75834,0.35026 -2.81204,7.49478 11.44242,11.27698 12.18372,19.52398 0.92035,10.23891 -16.074,20.51784 -10.43642,27.9375 5.88038,7.73921 14.95574,-14.14009 23.35574,-12.72911 8.377,1.40712 12.27913,24.61781 19.88484,19.94678 8.19358,-5.03209 -4.66805,-24.73044 0,-34.64481 2.87177,-6.09933 15.46032,-3.05088 14.79281,-10.10473 -0.90702,-9.58503 -16.44119,-0.8387 -22.09162,-7.30524 -4.49192,-5.14069 -0.34331,-20.71943 -6.35611,-21.56543 z"
       id="path2178"
       sodipodi:nodetypes="aaaaaaaaaaa" />
    <path
       style="fill:#aa4400;stroke:none;stroke-width:0.341548px;stroke-linecap:butt;stroke-linejoin:miter;stroke-opacity:1"
       d="m 1586.1936,691.69159 c 4.5339,0.60513 3.487,-11.14337 7.485,-13.78659 4.9699,-3.28565 14.573,5.90158 17.01,-0.2597 2.1983,-5.55801 -8.9453,-8.36282 -9.5248,-14.47864 -0.7195,-7.59298 12.566,-15.21569 8.1588,-20.71793 -4.5971,-5.73925 -11.6919,10.48604 -18.2587,9.43966 -6.5489,-1.04347 -9.5994,-18.2561 -15.5452,-14.79217 -6.4055,3.73171 3.6493,18.3396 0,25.69194 -2.2451,4.52313 -12.0863,2.26249 -11.5645,7.49346 0.7091,7.10813 12.8531,0.62196 17.2704,5.41747 3.5116,3.81225 0.2684,15.36512 4.969,15.9925 z"
       id="path2178-7"
       sodipodi:nodetypes="aaaaaaaaaaa" />
    <path
       style="fill:#aa4400;stroke:none;stroke-width:0.341548px;stroke-linecap:butt;stroke-linejoin:miter;stroke-opacity:1"
       d="m 2344.8151,108.3285 c -4.5339,0.6051 -3.487,-11.143399 -7.485,-13.786599 -4.9699,-3.2857 -14.573,5.901599 -17.01,-0.2597 -2.1983,-5.558 8.9453,-8.3628 9.5248,-14.4787 0.7195,-7.5929 -12.566,-15.2157 -8.1588,-20.717898 4.5971,-5.7392 11.6919,10.485998 18.2587,9.439698 6.5489,-1.0435 9.5994,-18.256098 15.5452,-14.792198 6.4055,3.7317 -3.6493,18.339598 0,25.691898 2.2451,4.5232 12.0863,2.2625 11.5645,7.4935 -0.7091,7.1081 -12.8531,0.622 -17.2704,5.4175 -3.5116,3.8122 -0.2684,15.365099 -4.969,15.992499 z"
       id="path2178-7-1"
       sodipodi:nodetypes="aaaaaaaaaaa" />
    <path
       style="fill:#aa4400;stroke:none;stroke-width:0.596527px;stroke-linecap:butt;stroke-linejoin:miter;stroke-opacity:1"
       d="m 3764.807,492.25265 c -7.1493,-1.17062 -5.4985,21.55663 -11.8027,26.66989 -7.8368,6.35603 -22.9796,-11.41649 -26.8223,0.50239 -3.4665,10.75186 14.1054,16.17771 15.0192,28.00865 1.1345,14.68848 -19.8148,29.43447 -12.8653,40.07845 7.249,11.10247 18.4365,-20.28505 28.7914,-18.26085 10.3266,2.01858 15.1368,35.31608 24.5125,28.61518 10.1006,-7.21893 -5.7544,-35.47761 0,-49.70058 3.5402,-8.74991 19.0584,-4.37674 18.2356,-14.49595 -1.1182,-13.75055 -20.2675,-1.20317 -27.233,-10.48 -5.5373,-7.37472 -0.4232,-29.72353 -7.8354,-30.93718 z"
       id="path2178-7-2"
       sodipodi:nodetypes="aaaaaaaaaaa" />
  </g>
</svg>
