<?xml version="1.0" encoding="UTF-8" standalone="no"?>
<svg
   xmlns:osb="http://www.openswatchbook.org/uri/2009/osb"
   xmlns:dc="http://purl.org/dc/elements/1.1/"
   xmlns:cc="http://creativecommons.org/ns#"
   xmlns:rdf="http://www.w3.org/1999/02/22-rdf-syntax-ns#"
   xmlns:svg="http://www.w3.org/2000/svg"
   xmlns="http://www.w3.org/2000/svg"
   xmlns:xlink="http://www.w3.org/1999/xlink"
   xmlns:sodipodi="http://sodipodi.sourceforge.net/DTD/sodipodi-0.dtd"
   xmlns:inkscape="http://www.inkscape.org/namespaces/inkscape"
   width="1366"
   height="768"
   viewBox="0 0 361.42084 203.2"
   version="1.1"
   id="svg8"
   inkscape:version="1.0.2-2 (e86c870879, 2021-01-15)"
   sodipodi:docname="props1.svg">
  <defs
     id="defs2">
    <linearGradient
       inkscape:collect="always"
       id="linearGradient1380">
      <stop
         style="stop-color:#ffffff;stop-opacity:1;"
         offset="0"
         id="stop1376" />
      <stop
         style="stop-color:#d5fff6;stop-opacity:1"
         offset="1"
         id="stop1378" />
    </linearGradient>
    <linearGradient
       id="linearGradient1318"
       osb:paint="solid">
      <stop
         style="stop-color:#000000;stop-opacity:1;"
         offset="0"
         id="stop1316" />
    </linearGradient>
    <inkscape:path-effect
       effect="bspline"
       id="path-effect1269"
       is_visible="true"
       lpeversion="1"
       weight="33.333333"
       steps="2"
       helper_size="0"
       apply_no_weight="true"
       apply_with_weight="true"
       only_selected="false" />
    <inkscape:path-effect
       effect="bspline"
       id="path-effect1233"
       is_visible="true"
       lpeversion="1"
       weight="33.333333"
       steps="2"
       helper_size="0"
       apply_no_weight="true"
       apply_with_weight="true"
       only_selected="false" />
    <linearGradient
       inkscape:collect="always"
       id="linearGradient1151-9">
      <stop
         style="stop-color:#ff6600;stop-opacity:1"
         offset="0"
         id="stop1147" />
      <stop
         style="stop-color:#ffdd55;stop-opacity:1"
         offset="1"
         id="stop1149" />
    </linearGradient>
    <inkscape:path-effect
       effect="bspline"
       id="path-effect1028"
       is_visible="true"
       lpeversion="1"
       weight="33.333333"
       steps="2"
       helper_size="0"
       apply_no_weight="true"
       apply_with_weight="true"
       only_selected="false" />
    <inkscape:path-effect
       effect="bspline"
       id="path-effect959"
       is_visible="true"
       lpeversion="1"
       weight="33.333333"
       steps="2"
       helper_size="0"
       apply_no_weight="true"
       apply_with_weight="true"
       only_selected="false" />
    <linearGradient
       inkscape:collect="always"
       xlink:href="#linearGradient1151-9"
       id="linearGradient1164"
       x1="56.566875"
       y1="98.367836"
       x2="50.274338"
       y2="98.010941"
       gradientUnits="userSpaceOnUse" />
    <linearGradient
       inkscape:collect="always"
       xlink:href="#linearGradient1151-9"
       id="linearGradient1235"
       gradientUnits="userSpaceOnUse"
       x1="56.566875"
       y1="98.367836"
       x2="50.274338"
       y2="98.010941"
       gradientTransform="matrix(0.82821968,0,0,1.0126484,82.42908,-0.30844348)" />
    <linearGradient
       inkscape:collect="always"
       xlink:href="#linearGradient1151-9"
       id="linearGradient1271"
       gradientUnits="userSpaceOnUse"
       x1="57.386303"
       y1="98.501472"
       x2="50.274338"
       y2="98.010941"
       gradientTransform="matrix(1.1415841,0,0,1,136.72613,2.0554008)" />
    <radialGradient
       inkscape:collect="always"
       xlink:href="#linearGradient1380"
       id="radialGradient1384"
       cx="226.14343"
       cy="175.32883"
       fx="226.14343"
       fy="175.32883"
       r="7.7815389"
       gradientTransform="matrix(2.0316283,-0.53706816,0.52144429,1.9725262,-324.72019,-49.057426)"
       gradientUnits="userSpaceOnUse" />
  </defs>
  <sodipodi:namedview
     id="base"
     pagecolor="#ffffff"
     bordercolor="#666666"
     borderopacity="1.0"
     inkscape:pageopacity="0.0"
     inkscape:pageshadow="2"
     inkscape:zoom="3.959798"
     inkscape:cx="871.63602"
     inkscape:cy="632.3054"
     inkscape:document-units="px"
     inkscape:current-layer="layer3"
     inkscape:document-rotation="0"
     showgrid="false"
     units="px"
     inkscape:pagecheckerboard="true"
     inkscape:window-width="1366"
     inkscape:window-height="705"
     inkscape:window-x="1272"
     inkscape:window-y="252"
     inkscape:window-maximized="1" />
  <metadata
     id="metadata5">
    <rdf:RDF>
      <cc:Work
         rdf:about="">
        <dc:format>image/svg+xml</dc:format>
        <dc:type
           rdf:resource="http://purl.org/dc/dcmitype/StillImage" />
        <dc:title></dc:title>
      </cc:Work>
    </rdf:RDF>
  </metadata>
  <g
     inkscape:label="Layer 1"
     inkscape:groupmode="layer"
     id="layer1" />
  <g
     inkscape:groupmode="layer"
     id="layer2"
     inkscape:label="Sketch"
     style="display:none">
    <path
       style="fill:#000000;fill-opacity:1;fill-rule:nonzero;stroke:none;stroke-width:0.264583"
       id="path19"
       d="m 55.821838,107.73366 c 2.084478,1.341 4.263099,2.51718 6.513873,3.5513 1.769586,0.78775 3.636158,1.31321 5.52518,1.7203 1.329227,0.24508 2.660012,0.48146 3.991284,0.71522 1.044843,0.16931 2.089957,0.34403 3.141867,0.46364 1.138803,0.17581 2.292551,0.15782 3.439522,0.10022 1.4571,-0.0724 2.891864,-0.33471 4.311163,-0.65842 1.730804,-0.39312 3.396044,-0.99148 5.014172,-1.71275 1.592649,-0.75074 3.155593,-1.56236 4.731494,-2.34736 1.986007,-1.00119 3.923504,-2.10089 5.792293,-3.30701 1.098523,-0.74038 2.104254,-1.60254 3.044234,-2.533 0.76612,-0.81389 1.50616,-1.65162 2.26867,-2.46905 0.0901,-0.18103 0.87202,-0.67374 0.57626,-0.88005 0,0 -0.51588,0.21013 -0.51588,0.21013 v 0 c -0.63402,0.38543 -1.25759,0.78184 -1.72933,1.36811 -0.75864,0.8147 -1.48853,1.65598 -2.260834,2.45757 -0.936363,0.92005 -1.948426,1.76205 -3.04087,2.4922 -0.426804,0.2762 -1.76911,0.98673 -1.292683,0.80933 0.288282,-0.10733 0.560351,-0.26684 0.800712,-0.45882 0.223422,-0.17845 -0.498343,0.28056 -0.749242,0.41771 -0.62311,0.34063 -0.908423,0.48415 -1.543196,0.81342 -1.578335,0.78275 -3.142787,1.59343 -4.731155,2.35561 -1.608021,0.72996 -3.26485,1.32717 -4.98629,1.73408 -1.402365,0.32572 -2.819992,0.60142 -4.262599,0.66053 -1.150225,0.0585 -2.305738,0.11645 -3.450325,-0.0554 -1.057815,-0.13691 -2.116593,-0.26513 -3.16973,-0.4354 -1.372531,-0.2076 -2.746811,-0.40284 -4.1178,-0.62028 -1.936467,-0.34612 -3.844378,-0.83229 -5.667558,-1.5845 -2.277478,-0.97355 -4.486317,-2.10362 -6.536611,-3.50099 0,0 -1.096621,0.69365 -1.096621,0.69365 z" />
    <path
       style="fill:#000000;fill-opacity:1;fill-rule:nonzero;stroke:none;stroke-width:0.264583"
       id="path21"
       d="m 58.652853,106.74988 c -1.323649,-0.7155 -2.366478,-1.79902 -3.340486,-2.92361 -0.824923,-0.96991 -1.443755,-2.09275 -2.064531,-3.19863 -0.44663,-0.768538 -0.202448,-0.40598 -0.728429,-1.090443 0,0 -0.176279,0.09757 -0.176279,0.09757 v 0 c 0.05581,0.935013 -0.0093,0.471593 0.1963,1.390113 0.370689,1.25039 0.782912,2.48538 1.71442,3.44216 1.016612,1.09557 2.069508,2.16884 3.349028,2.96144 0,0 1.049977,-0.6786 1.049977,-0.6786 z" />
    <path
       style="fill:#000000;fill-opacity:1;fill-rule:nonzero;stroke:none;stroke-width:0.264583"
       id="path23"
       d="m 53.530049,100.71317 c -0.147164,-1.896761 0.107053,-3.747345 0.777417,-5.520714 0.708713,-1.6944 2.033606,-2.891103 3.438724,-4.00666 1.30692,-1.025467 2.181968,-1.383231 3.917434,-1.919653 2.171965,-0.533519 4.419103,-0.595455 6.643206,-0.678997 2.294797,-0.07149 4.590164,-0.06285 6.883604,0.03901 1.774862,0.0859 3.541792,0.286314 5.282224,0.643872 1.538142,0.335973 3.023407,0.85766 4.487936,1.427321 1.3744,0.510119 2.756877,0.997881 4.139005,1.486551 0.942559,0.22171 0.452818,0.153125 1.471191,0.191151 0,0 0.719162,-0.47793 0.719162,-0.47793 v 0 c -0.305554,-0.585193 -0.08303,-0.333587 -0.711232,-0.71382 -1.391071,-0.478398 -2.78932,-0.936355 -4.162915,-1.464527 -1.482103,-0.550156 -2.966818,-1.112718 -4.517689,-1.441087 -1.770359,-0.360612 -3.564482,-0.564883 -5.371639,-0.614741 -2.344159,-0.06869 -4.68914,-0.05148 -7.03225,0.05378 -2.288551,0.10817 -4.600265,0.213704 -6.831214,0.776092 -2.104138,0.662067 -4.081634,1.685396 -5.818933,3.055294 -1.350939,1.102085 -2.635825,2.282246 -3.236217,3.971608 -0.571161,1.774111 -0.758217,3.612904 -0.618202,5.47481 0,0 0.540388,-0.28136 0.540388,-0.28136 z" />
    <path
       style="fill:#000000;fill-opacity:1;fill-rule:nonzero;stroke:none;stroke-width:0.264583"
       id="path25"
       d="m 103.44022,101.2565 c 0.68092,-1.71639 0.68368,-3.180552 0.0203,-4.891588 -0.9157,-1.817056 -2.56343,-2.926655 -4.293154,-3.877774 -1.719556,-0.881903 -3.542577,-1.535715 -5.348674,-2.213954 -1.474885,-0.608552 -3.021978,-0.959929 -4.588809,-1.226267 -0.807752,-0.09408 -1.623293,-0.242435 -2.438969,-0.121017 -1.342665,0.311541 -0.725797,0.210605 -1.84345,0.343685 0,0 -0.66938,0.494811 -0.66938,0.494811 v 0 c 1.347939,-0.05517 0.05601,-0.104738 1.091946,0.18565 0.701324,0.196594 1.463493,0.0997 2.168081,0.284136 1.560079,0.250942 3.100872,0.607452 4.574844,1.188747 1.819439,0.654481 3.652081,1.296 5.388584,2.152435 1.711264,0.91331 3.327121,1.987204 4.324921,3.707022 0.69417,1.479026 1.0494,2.944134 0.41562,4.525704 0,0 1.19811,-0.55159 1.19811,-0.55159 z" />
    <path
       style="fill:#000000;fill-opacity:1;fill-rule:nonzero;stroke:none;stroke-width:0.264583"
       id="path27"
       d="m 52.657318,103.55499 c -1.045975,0.94096 -2.150779,1.81065 -3.268959,2.66311 -0.777187,0.56529 -1.535676,1.15544 -2.292003,1.74814 -0.508074,0.39209 -1.033677,0.75431 -1.587712,1.0776 -0.701992,0.38017 -1.356709,0.83824 -2.020747,1.27956 -0.663779,0.41907 -1.31027,0.86423 -1.951533,1.31671 -0.485121,0.36677 -0.959739,0.74695 -1.434364,1.12708 -0.379664,0.31286 -0.725154,0.66335 -1.091348,0.99125 -0.13244,0.22165 -0.561226,0.53467 -0.02652,0.423 0.215138,-0.0814 0.430273,-0.16271 0.645408,-0.24407 0,0 0.875724,-0.39602 0.875724,-0.39602 v 0 c 0.234206,-0.11934 0.468415,-0.23867 0.702622,-0.35801 0.310346,-0.18293 0.540716,-0.36659 0.769749,-0.64074 0.344073,-0.33107 0.689076,-0.66228 1.066629,-0.95568 0.467733,-0.37158 0.930981,-0.74931 1.414647,-1.10028 0.599837,-0.42891 1.209842,-0.843 1.819675,-1.25751 0.578289,-0.39974 1.156475,-0.8002 1.758662,-1.16362 0.509378,-0.33028 0.998265,-0.68931 1.474522,-1.06576 0.736074,-0.57663 1.470467,-1.15531 2.217973,-1.71715 1.072396,-0.84651 2.12007,-1.72191 3.14474,-2.62575 0,0 -2.217166,0.89814 -2.217166,0.89814 z" />
    <path
       style="fill:#000000;fill-opacity:1;fill-rule:nonzero;stroke:none;stroke-width:0.264583"
       id="path29"
       d="m 42.231099,111.43528 c -0.390326,-1.54712 -0.641395,-3.12551 -0.887179,-4.70083 -0.223928,-1.37598 -0.421135,-2.75595 -0.623359,-4.1352 -0.1588,-1.00022 -0.297942,-2.00328 -0.501684,-2.995661 -0.0804,-0.403924 -0.09097,-0.811287 -0.29581,-1.177327 -0.206285,-0.268915 -0.472339,-0.485841 -0.706122,-0.731412 -0.492133,-0.655097 -0.806159,-1.425895 -1.140286,-2.168858 -0.388622,-0.928928 -0.818774,-1.83978 -1.314185,-2.716443 -0.445961,-0.794168 -0.926769,-1.569775 -1.482879,-2.291736 -0.320847,-0.454179 -0.731332,-0.817245 -1.207079,-1.098598 -0.282943,-0.159464 -0.621033,-0.167875 -0.876263,-0.373128 -0.141613,-0.133872 -0.217226,-0.321974 -0.243896,-0.512842 0.06979,-0.100142 0.118134,-0.102039 0.03693,-0.288219 -0.139551,-0.213857 -0.329377,-0.377087 -0.528844,-0.532529 -0.159247,-0.12115 -0.30444,-0.258234 -0.472717,-0.36652 -3.11449,1.902058 -2.126986,1.624156 -0.459426,1.528504 1.359586,-0.12839 2.723439,-0.200295 4.087157,-0.267142 0.91249,-0.02947 1.832306,-0.0809 2.738247,0.05468 0.908894,0.188878 1.682131,0.711293 2.450327,1.203926 0.825011,0.601183 1.737641,1.009639 2.704,1.320519 1.135232,0.295072 2.298552,0.458079 3.446269,0.695153 0.86999,0.190352 1.73813,0.386244 2.515415,0.832999 0.528267,0.395594 1.029362,0.807918 1.618488,1.111525 0.996172,0.459459 2.089362,0.607319 3.174593,0.528868 0.212616,-0.05075 0.425233,-0.1015 0.637852,-0.152247 0,0 0.445416,-0.314338 0.445416,-0.314338 v 0 c -0.02104,-0.08312 -0.04206,-0.166243 -0.06309,-0.249365 -0.683427,-0.484494 -1.553374,-0.624461 -2.264378,-1.073002 -0.564095,-0.327779 -1.034003,-0.754433 -1.551633,-1.147405 -0.799754,-0.471469 -1.679991,-0.703053 -2.588805,-0.875654 -1.13237,-0.235051 -2.276976,-0.413692 -3.397608,-0.701739 -0.95694,-0.279876 -1.856131,-0.671039 -2.666098,-1.264007 -0.771234,-0.522703 -1.563081,-1.056706 -2.469303,-1.311611 -0.924076,-0.174088 -1.867477,-0.08749 -2.802409,-0.07211 -1.317818,0.05629 -2.635612,0.112861 -3.953354,0.170612 -2.037754,0.04632 -1.388649,-0.286751 -3.974002,1.487699 0.153451,0.12705 0.327523,0.224607 0.484408,0.347736 0.14955,0.116404 0.319492,0.226957 0.414012,0.393565 -0.09839,-0.140914 -0.127022,0.222409 -0.104664,0.298141 0.05951,0.246877 0.110349,0.507981 0.299225,0.693084 0.262062,0.268822 0.545473,0.352406 0.906523,0.44091 0.467432,0.227361 0.857277,0.559871 1.177391,0.970534 0.538006,0.71983 1.054237,1.453485 1.494375,2.23884 0.484774,0.873588 0.899152,1.780535 1.301157,2.694813 0.345038,0.769041 0.640794,1.58277 1.133112,2.271353 0.207915,0.258958 0.46413,0.454141 0.696304,0.688832 0.218554,0.28073 0.350838,0.64269 0.461778,0.97444 0.254026,0.96942 0.391768,1.96098 0.54502,2.95036 0.226238,1.37121 0.414676,2.74855 0.6658,4.11563 0.276596,1.57069 0.600882,3.13307 0.95753,4.68748 0,0 2.183741,-1.18228 2.183741,-1.18228 z" />
    <path
       style="fill:#000000;fill-opacity:1;fill-rule:nonzero;stroke:none;stroke-width:0.264583"
       id="path31"
       d="m 73.582471,86.437173 c 0.264038,-1.100039 0.584092,-2.183781 0.940567,-3.256952 0.201999,-0.613637 0.530323,-1.17012 0.948505,-1.659038 0.398042,-0.410236 0.792533,-0.817925 1.130298,-1.280017 0.252814,-0.357495 0.537887,-0.691198 0.757261,-1.071502 0.01503,-0.02527 0.06996,-0.09155 0.04512,-0.07581 -1.820934,1.153954 -1.442791,0.650068 -0.348109,1.313654 0.615902,0.418063 1.240094,0.81979 1.940303,1.079476 0.715851,0.225279 1.463622,0.328298 2.206313,0.420576 0.67456,0.06549 1.288746,0.318958 1.86957,0.654582 0.674097,0.454864 1.08173,1.152255 1.499309,1.828274 0.443468,0.79207 0.897742,1.575853 1.378053,2.346253 0.578641,0.894485 1.005189,1.874293 1.60193,2.756736 0.383403,0.572442 1.048729,0.757696 1.572229,1.157796 0,0 0.275354,-0.165719 0.275354,-0.165719 v 0 c -0.290549,-0.564722 -0.252735,-1.182222 -0.47635,-1.776542 -0.391891,-0.997487 -0.944079,-1.913755 -1.469065,-2.845568 -0.465233,-0.77869 -0.92034,-1.563002 -1.378098,-2.346068 -0.425638,-0.708152 -0.864095,-1.419043 -1.570773,-1.882825 -0.601893,-0.36825 -1.233512,-0.63145 -1.945879,-0.685232 -0.726035,-0.10265 -1.45633,-0.200379 -2.161809,-0.407357 -0.694328,-0.245685 -1.327169,-0.613471 -1.919182,-1.05119 -0.76308,-0.486272 -2.053207,-1.288381 -2.657449,0.374383 -0.130558,0.309827 -0.22797,0.635928 -0.438933,0.905229 -0.278011,0.398553 -0.605533,0.75946 -0.871963,1.166294 -0.306785,0.507773 -0.6065,1.005195 -0.733505,1.595771 -0.31745,1.056677 -0.551646,2.133936 -0.820224,3.203525 0,0 0.626528,-0.298728 0.626528,-0.298728 z" />
    <path
       style="fill:#000000;fill-opacity:1;fill-rule:nonzero;stroke:none;stroke-width:0.264583"
       id="path33"
       d="m 72.435817,101.84741 c -0.308933,1.17006 -0.559237,2.34667 -0.522306,3.56049 0.03235,0.76947 0.371274,1.38197 1.093489,1.66356 0.685601,0.12824 1.369504,-0.0181 2.039728,-0.16004 0.405958,-0.0871 0.812636,-0.17059 1.22029,-0.2494 0.468993,-0.0403 0.936689,-0.08 1.400181,-0.16556 0.644104,-0.1173 1.245626,-0.3739 1.829069,-0.66206 0.459624,-0.22276 0.899687,-0.48483 1.368955,-0.68731 0.256444,-0.10522 0.517326,-0.19847 0.772575,-0.30671 0.818997,-0.30521 1.49229,-0.78667 2.250879,-1.25139 0.416113,-0.43771 0.810864,-0.89422 1.197933,-1.35755 0.511464,-0.67078 1.432973,-1.04129 -1.025514,0.42227 0.29197,-0.0753 0.461311,-0.21436 0.72122,-0.39585 0,0 0.770617,-0.57983 0.770617,-0.57983 v 0 c 0.471892,-0.40663 0.31015,-0.26749 0.01976,-0.20881 -1.408861,0.78127 -1.576226,0.61314 -2.176534,1.48715 -0.294991,0.4112 -0.542073,0.86683 -0.928632,1.20198 2.229795,-1.23174 0.941359,-0.47395 0.380828,-0.27511 -0.30032,0.13145 -0.596839,0.27145 -0.896826,0.4037 -0.483489,0.21588 -0.94697,0.46992 -1.41564,0.71611 -0.573741,0.28838 -1.160872,0.55993 -1.795769,0.68285 -0.460635,0.0891 -0.924629,0.13034 -1.392375,0.15813 -0.410703,0.0834 -0.822079,0.16374 -1.23122,0.25462 -0.655765,0.14587 -1.317086,0.33322 -1.994938,0.21945 -0.688874,-0.21529 -0.921385,-0.84868 -1.016375,-1.52256 -0.04599,-1.19993 0.188899,-2.38731 0.551759,-3.52844 0,0 -1.221158,0.58031 -1.221158,0.58031 z" />
    <path
       style="fill:#000000;fill-opacity:1;fill-rule:nonzero;stroke:none;stroke-width:0.264583"
       id="path35"
       d="m 95.933519,96.57648 c -0.990783,-0.911809 -1.667597,-2.061638 -2.128494,-3.313623 -0.202795,-0.711769 -0.208457,-1.469919 0.07024,-2.160392 0.458091,-0.527957 1.942605,-1.622332 -1.144432,0.581298 -0.07748,0.05531 0.189246,-0.03135 0.284324,-0.02668 0.115893,0.0057 0.228878,0.03835 0.343316,0.05752 0.936037,0.335907 1.620041,1.093653 2.207336,1.864625 0.647587,0.847503 1.089737,1.77615 1.277462,2.823416 -0.01204,0.306343 0.09992,0.727591 -0.03424,1.02589 -0.02315,0.05145 -0.181025,0.134099 -0.132619,0.10513 0.52407,-0.313661 1.058367,-0.612532 1.560748,-0.959879 0.09093,-0.06287 -0.210902,0.06633 -0.316355,0.0995 -0.683974,0.26859 -0.367866,0.182423 -0.936879,0.297302 0,0 -0.486614,0.349578 -0.486614,0.349578 v 0 c 0.188855,0.168741 0.130379,0.05352 0.0041,0.387612 1.961946,1.097757 2.4271,-1.302655 2.232197,-2.31894 -0.260181,-1.05087 -0.697092,-2.021269 -1.356154,-2.887703 -0.615598,-0.792773 -1.3106,-1.597649 -2.245204,-2.013397 -1.2432,-0.374832 -2.620909,0.474324 -3.255883,1.54463 -0.26266,0.752319 -0.267824,1.550461 -0.01376,2.309013 0.479412,1.275681 1.273553,2.394236 2.166781,3.416319 0,0 1.904159,-1.181217 1.904159,-1.181217 z" />
    <path
       style="fill:#000000;fill-opacity:1;fill-rule:nonzero;stroke:none;stroke-width:0.264583"
       id="path37"
       d="m 96.015442,93.330463 c -0.144862,1.325661 0.262909,3.009774 -0.531529,4.169755 2.613252,-1.543648 1.255252,-0.381278 0.770704,-1.679239 -0.146103,-0.391364 -0.100898,-0.357363 0.01889,-0.694055 0.994936,-0.253821 -0.475729,0.0841 -1.145839,0.964922 -0.103722,0.13634 0.310001,0.152439 0.44324,0.260114 0.567913,0.458949 0.779918,0.992868 0.956069,1.673665 -0.01077,0.664051 -0.162171,1.290428 -0.713475,1.720273 -0.152813,0.119144 -0.661305,0.396232 -0.51557,0.268532 1.277811,-1.119705 1.925217,-0.865549 0.769216,-1.073178 -0.475922,-0.220392 -0.936284,-0.522301 -1.155058,-1.024215 -0.04386,-0.100621 -0.07508,-0.215495 -0.05867,-0.324025 0.0095,-0.06258 0.182203,-0.173429 0.128768,-0.13952 -0.559882,0.355299 -1.101998,0.737857 -1.652995,1.106787 0.728826,0.232918 1.522894,0.982075 1.736685,1.735391 2.582701,-1.699808 1.879296,-0.689938 1.434267,-2.137436 -0.136123,-0.442749 -0.172765,-0.797275 -0.02328,-1.229964 1.176936,-0.688628 -3.362854,1.564032 -0.782994,0.708459 0,0 0.804939,-0.481925 0.804939,-0.481925 v 0 c 0.110577,-0.153022 0.270896,-0.280342 0.331727,-0.459068 0.219876,-0.646023 -2.142483,0.336103 -2.380105,1.203193 -0.02048,0.120134 -0.05927,0.238556 -0.06142,0.360405 -0.0048,0.270385 0.380431,1.937326 0.540959,1.897426 0.768445,-0.191015 1.436632,-0.666376 2.154949,-0.999565 -0.476771,-0.787419 -1.098219,-1.554327 -1.956744,-1.931694 -0.729589,0.386881 -1.49337,0.715221 -2.188763,1.160645 -0.531567,0.340487 1.014391,1.705394 1.336579,1.796844 1.434749,0.38297 0.550175,0.28175 3.059026,-0.955855 0.85317,-0.420871 1.102151,-1.298946 0.987155,-2.181879 -0.627452,-1.912522 -1.860429,-3.29071 -3.911399,-1.020599 -0.01474,0.121965 -0.05467,0.243491 -0.0442,0.365898 0.02299,0.26897 0.598625,1.602629 0.970214,1.450515 0.721532,-0.295368 1.346747,-0.785927 2.02012,-1.178888 0.565171,-1.299986 0.245793,-2.814466 0.351883,-4.190627 0,0 -1.693352,0.858908 -1.693352,0.858908 z" />
    <path
       style="fill:#000000;fill-opacity:1;fill-rule:nonzero;stroke:none;stroke-width:0.264583"
       id="path39"
       d="m 99.189034,105.16616 c -1.283321,-0.42694 -2.600409,-0.74307 -3.920516,-1.03246 -0.966684,-0.22122 -1.956327,-0.27434 -2.942294,-0.19679 -0.588333,0.0507 -0.979749,0.33879 -1.476216,0.64774 0,0 -0.727599,0.56992 -0.727599,0.56992 v 0 c -0.391218,0.4242 -0.172831,0.26053 0.202605,0.2655 0.998296,-0.11164 2.003838,-0.10725 2.99584,0.0694 1.355899,0.25936 2.704999,0.55993 4.035515,0.92909 0,0 1.832665,-1.25236 1.832665,-1.25236 z" />
    <path
       style="fill:#000000;fill-opacity:1;fill-rule:nonzero;stroke:none;stroke-width:0.264583"
       id="path41"
       d="m 147.10832,109.53217 c -0.17654,0.52179 -0.3908,1.02878 -0.53298,1.56184 -0.091,0.3413 -0.0864,0.45864 -0.0613,0.4434 0.42738,-0.25973 0.80986,-0.58701 1.21479,-0.88051 0.41816,-1.42759 0.43284,-2.92638 0.50212,-4.40064 0.11508,-1.99145 0.062,-3.98314 -0.009,-5.97436 -0.0673,-1.620101 -0.13961,-3.239877 -0.31132,-4.852679 -0.11383,-1.016014 -0.3859,-2.003923 -0.49942,-3.019709 -0.12309,-0.796192 -0.10812,-1.597353 -0.09,-2.399368 0.007,-0.516597 0.0354,-1.064919 -0.11553,-1.56541 -0.30824,-0.891085 -0.17666,-0.466302 -1.35625,0.570256 0.4003,0.632458 0.95649,1.146053 1.46037,1.693789 0.60457,0.720248 1.13441,1.469107 1.84097,2.095889 1.03492,0.877657 2.2244,1.522171 3.45302,2.081151 1.5736,0.64506 3.20614,1.133904 4.83214,1.627304 1.15657,0.361125 2.31824,0.706628 3.49651,0.989764 0.93188,0.202954 1.88658,0.268081 2.83818,0.257482 0.62546,-0.03592 1.25046,-0.04343 1.87577,-0.0084 0.1703,0.0099 0.34027,0.0254 0.51085,0.02844 0.0676,0.0063 0.15157,-0.01082 0.19683,-0.02238 0.11041,0.09829 0.19429,0.228618 0.28215,0.348702 0.0975,0.162267 -0.005,0.151151 -0.12228,0.315106 -0.45945,0.55449 -0.88963,1.129368 -1.28373,1.731923 -0.30546,0.53866 -0.6129,1.08495 -0.83118,1.66597 -0.11937,0.31431 -0.0719,0.64833 -0.11615,0.97305 -0.0703,0.33479 -0.22544,0.61644 -0.44303,0.87536 -0.4577,0.34845 -1.35404,0.90999 0.87982,-0.47633 0.0972,-0.0603 -0.20431,0.10313 -0.30726,0.15306 -0.2364,0.11465 -0.47448,0.22581 -0.71106,0.34009 -0.90882,0.45632 -1.77827,0.98888 -2.65732,1.49768 -0.14532,0.0841 -0.58023,0.33824 -0.43522,0.25359 1.10576,-0.64545 1.29287,-0.73603 0.4854,-0.30889 -1.174,0.64827 -2.44336,1.06405 -3.734,1.40487 -1.38785,0.32162 -2.76652,0.67382 -4.1033,1.16893 -1.45073,0.6215 -2.92698,1.30403 -3.78556,2.66678 -0.36699,0.60535 -0.50678,1.29456 -0.60163,1.986 0.0277,0.37429 -0.0658,0.24243 0.35808,0.32711 0,0 0.49565,-0.23411 0.49565,-0.23411 v 0 c 0.60754,-0.56462 0.39488,-0.26738 0.70611,-0.8388 0.24206,-0.6661 0.36486,-1.38039 0.74614,-1.98913 0.376,-0.57044 1.05202,-1.04434 0.85206,-0.95917 -2.57514,1.09683 -0.67436,0.51248 -0.18685,0.14993 1.35757,-0.51666 2.7505,-0.91195 4.16558,-1.2405 1.30744,-0.33329 2.59479,-0.74714 3.78502,-1.39516 1.11619,-0.58805 0.38505,-0.19557 2.37229,-1.33521 0.14917,-0.0855 0.59601,-0.34332 0.44648,-0.2584 -0.3399,0.19305 -0.68039,0.38511 -1.01762,0.58278 -0.25839,0.15146 1.02625,-0.57841 0.79086,-0.42643 1.04116,-0.51107 2.19765,-0.9294 3.03758,-1.74503 0.22025,-0.29274 0.3591,-0.61902 0.43324,-0.97876 0.0255,-0.30748 -0.0324,-0.62008 0.10426,-0.91566 0.22864,-0.55519 0.48391,-1.098952 0.79792,-1.612241 0.38838,-0.58266 0.81655,-1.13525 1.22413,-1.703848 0.11248,-0.175196 0.19584,-0.320384 0.02,-0.474022 -0.0887,-0.147058 -0.15875,-0.300988 -0.24971,-0.446395 -0.0654,-0.06792 -0.0969,-0.09636 -0.1957,-0.09137 -0.18482,-0.0051 -0.36995,-0.0048 -0.55474,-2.64e-4 -0.684,0.02627 -1.36471,0.09714 -2.04837,0.13004 -0.94697,0.01802 -1.89985,-0.02824 -2.82975,-0.21948 -1.19341,-0.275926 -2.36929,-0.618265 -3.55018,-0.942203 -1.62077,-0.489373 -3.25539,-0.952515 -4.81616,-1.615665 -1.21068,-0.555714 -2.38011,-1.193072 -3.3957,-2.066779 -0.68401,-0.631584 -1.21597,-1.380892 -1.78976,-2.110219 -0.487,-0.548262 -1.03771,-1.046758 -1.42252,-1.677297 -1.92866,0.672727 -1.61342,0.100732 -1.20454,0.871392 0.16221,0.454525 0.22807,0.935908 0.35865,1.39958 0.13091,0.748345 0.25077,1.499269 0.40788,2.242561 0.2139,0.990187 0.41709,1.984877 0.5475,2.989913 0.18464,1.625304 0.24836,3.260778 0.21016,4.896427 -0.0169,2.02447 -0.11791,4.04709 -0.19251,6.07006 -0.0668,1.48346 -0.13508,2.98676 -0.60729,4.40807 0.30681,-0.0577 0.62073,-0.0858 0.92043,-0.17318 0.0293,-0.009 -0.0242,-0.0582 -0.0227,-0.0886 0.004,-0.0943 0.0204,-0.18803 0.0399,-0.2804 0.11361,-0.53814 0.33883,-1.03741 0.53118,-1.55005 0,0 -1.02884,0.47884 -1.02884,0.47884 z" />
    <path
       style="fill:#000000;fill-opacity:1;fill-rule:nonzero;stroke:none;stroke-width:0.264583"
       id="path43"
       d="m 219.12316,107.86544 c -0.79826,0.85179 -1.63904,1.68923 -2.59573,2.36569 -0.27935,0.19752 -1.16291,0.72067 -0.86496,0.55251 0.51694,-0.29177 1.01503,-0.61577 1.52254,-0.92365 -2.55752,1.23009 -5.38151,1.4792 -8.17593,1.56904 -3.82756,-0.0675 -7.62173,-0.67135 -11.41505,-1.14043 -3.18317,-0.33911 -6.3486,-0.79056 -9.48892,-1.41014 -2.17777,-0.45137 -4.35096,-0.92389 -6.52252,-1.40408 -1.54687,-0.31351 -3.06364,-0.72878 -4.55322,-1.24716 -0.95602,-0.41657 -1.87038,-0.96983 -2.69989,-1.60288 -0.38232,-0.20606 -0.66673,-0.66855 -1.10798,-0.77393 -1.25455,-0.2996 -0.14427,0.21323 -0.91061,-0.17646 0,0 -0.76976,0.48896 -0.76976,0.48896 v 0 c 0.46945,0.48435 -0.0401,-0.14452 0.17223,0.6299 0.10624,0.38745 0.64744,0.57998 0.79366,0.9493 0.60922,0.79673 1.20626,1.5798 2.0978,2.09522 1.36479,0.76977 2.91751,1.05261 4.43001,1.40575 2.18092,0.46961 4.36334,0.93226 6.54596,1.39392 3.15759,0.64736 6.35124,1.05003 9.55532,1.39217 3.79282,0.4569 7.578,1.08381 11.4008,1.20627 2.87521,-0.0638 5.77636,-0.31555 8.41057,-1.573 2.31681,-1.32658 4.5457,-2.36873 6.06737,-4.60001 0,0 -1.89169,0.80301 -1.89169,0.80301 z" />
    <path
       style="fill:#000000;fill-opacity:1;fill-rule:nonzero;stroke:none;stroke-width:0.264583"
       id="path45"
       d="m 165.38138,106.41623 c 1.42672,1.03222 3.10176,1.49667 4.80971,1.79717 1.77011,0.23454 3.5352,0.50054 5.3003,0.76999 1.19523,0.32056 2.33772,0.25975 3.55644,0.16731 0,0 0.24187,-0.17005 0.24187,-0.17005 v 0 c -0.75466,-0.5055 -1.5105,-0.79595 -2.41289,-0.96195 -1.69288,-0.44062 -3.42164,-0.65476 -5.15433,-0.87835 -1.66721,-0.28315 -3.33268,-0.65309 -4.6678,-1.76494 0,0 -1.6733,1.04082 -1.6733,1.04082 z" />
    <path
       style="fill:#000000;fill-opacity:1;fill-rule:nonzero;stroke:none;stroke-width:0.264583"
       id="path47"
       d="m 166.83019,106.43866 c -0.14213,-1.83867 0.29123,-3.65556 0.85045,-5.39334 0.51529,-1.708995 1.528,-3.131164 2.74035,-4.410301 0.27006,-0.246745 0.53419,-0.500139 0.81017,-0.740235 0.90368,-0.786167 1.86598,-1.508194 2.88081,-2.145154 1.14373,-0.717865 1.27498,-0.942007 0.97135,-0.502735 2.28975,-1.067597 4.75541,-1.649439 7.2266,-2.112545 2.22714,-0.243239 4.42414,-0.680833 6.63618,-1.009711 0,0 0.2092,-0.155059 0.2092,-0.155059 v 0 c -0.96039,0.03104 -0.47146,0.03636 -1.46672,-0.0208 -1.51425,0.02641 -3.01087,0.373928 -4.51175,0.532342 -2.40871,0.395991 -4.81471,0.910291 -7.04819,1.928201 -2.48431,1.350764 -4.95826,2.718806 -6.96675,4.751544 -1.22703,1.306761 -2.25012,2.734879 -2.74921,4.483843 -0.51388,1.77621 -0.91819,3.59294 -0.85515,5.45511 0,0 1.27266,-0.66116 1.27266,-0.66116 z" />
    <path
       style="fill:#000000;fill-opacity:1;fill-rule:nonzero;stroke:none;stroke-width:0.264583"
       id="path49"
       d="m 174.21336,96.164895 c 1.42612,-1.319242 3.06276,-2.494897 4.64054,-3.508854 2.80839,-1.486324 5.91512,-2.204255 9.00413,-2.835389 2.80103,-0.535877 5.64195,-0.742561 8.48929,-0.703202 2.45808,0.05343 4.8566,0.582628 7.2184,1.222825 2.13969,0.605123 4.20146,1.431441 6.15533,2.489197 1.65221,0.927955 2.99916,2.234502 4.23214,3.651602 1.04131,1.273924 2.03342,2.586736 3.04163,3.886666 0.75619,0.9824 1.51715,2.01822 2.53945,2.74018 0.20957,0.008 0.41914,0.0164 0.62871,0.0245 0,0 0.77909,-0.45854 0.77909,-0.45854 v 0 c 0.0779,-0.18133 0.15581,-0.36267 0.23372,-0.544 -0.41452,-1.15456 -1.308,-2.07225 -2.02623,-3.044684 -1.00339,-1.31055 -2.01356,-2.616888 -3.06037,-3.893084 -1.2568,-1.438416 -2.63291,-2.76773 -4.31667,-3.703627 -1.99343,-1.066393 -4.10365,-1.879452 -6.28745,-2.469 -2.45275,-0.619521 -4.95455,-1.028247 -7.48843,-1.09724 -2.96359,-0.03228 -5.91345,0.258054 -8.81238,0.891911 -3.12697,0.684167 -6.29471,1.384162 -9.1497,2.887218 -2.48613,1.431525 -4.92917,2.913255 -6.98637,4.941535 0,0 1.16517,-0.478022 1.16517,-0.478022 z" />
    <path
       style="fill:#000000;fill-opacity:1;fill-rule:nonzero;stroke:none;stroke-width:0.264583"
       id="path51"
       d="m 219.88022,104.81037 c 0.26103,1.49322 0.3972,3.01592 0.27687,4.52905 0.0561,0.36988 -0.21387,0.72704 -0.17919,1.0954 0.0112,0.11863 0.16816,0.1993 0.16262,0.31832 -0.007,0.15095 -0.13098,0.27238 -0.19647,0.40857 0,0 0.79562,-0.35369 0.79562,-0.35369 v 0 c 0.53581,-0.79385 1.31528,-1.35019 1.27782,-2.40653 0.008,-1.48849 -0.21894,-2.97753 -0.618,-4.41095 0,0 -1.51927,0.81983 -1.51927,0.81983 z" />
    <path
       style="fill:#000000;fill-opacity:1;fill-rule:nonzero;stroke:none;stroke-width:0.264583"
       id="path53"
       d="m 214.43935,97.752376 c -1.15221,-0.620906 -1.71625,-1.649968 -1.93223,-2.898275 0.0332,-0.121325 0.0215,-0.265351 0.0995,-0.363977 0.0597,-0.07537 0.35003,-0.15495 0.26957,-0.102367 -0.97443,0.636844 -2.06225,1.113428 -2.95664,1.85851 -0.12363,0.102992 0.28467,0.158816 0.39827,0.272772 0.43804,0.439399 0.61263,0.854112 0.9135,1.396744 0.38039,0.849582 0.65335,1.739569 0.6282,2.680237 -0.006,0.24134 -0.0484,0.48109 -0.0941,0.71815 -0.0328,0.16992 -0.20805,0.3403 -0.14071,0.49971 0.0454,0.10743 0.23323,-0.003 0.34984,-0.005 0.25389,-0.1458 0.50778,-0.29159 0.76167,-0.43738 0,0 -0.69973,0.55468 -0.69973,0.55468 v 0 c 0.49803,-0.25471 0.99606,-0.50941 1.49409,-0.76412 0.34545,-0.23621 0.74268,-0.41048 1.03635,-0.70862 0.99731,-1.012482 0.20322,-3.251236 -0.22126,-4.322883 -0.10069,-0.194323 -1.09995,-2.109068 -1.34661,-2.033466 -2.16056,0.662215 -3.6329,0.749134 -3.89683,2.544691 0.1152,1.414333 0.65492,2.598526 1.91503,3.351983 0,0 3.42206,-2.241722 3.42206,-2.241722 z" />
    <path
       style="fill:#000000;fill-opacity:1;fill-rule:nonzero;stroke:none;stroke-width:0.264583"
       id="path55"
       d="m 219.12384,104.49936 c -2.19073,-0.30352 -4.34818,0.0246 -6.45609,0.61885 -1.92579,0.85798 -1.02227,0.45673 -2.71021,1.2045 0,0 -0.64461,0.49519 -0.64461,0.49519 v 0 c 0.49148,0.13591 0.25485,0.0344 0.70649,0.31225 2.00547,-0.25618 4.00563,-0.60951 6.03792,-0.44188 0,0 3.0665,-2.18891 3.0665,-2.18891 z" />
    <path
       style="fill:#000000;fill-opacity:1;fill-rule:nonzero;stroke:none;stroke-width:0.264583"
       id="path57"
       d="m 191.61526,102.48894 c -0.84354,0.99547 -2.24524,2.13572 -2.14019,3.59837 0.0183,0.25501 0.1465,0.4899 0.21974,0.73484 0.17448,0.19514 0.31197,0.43113 0.52344,0.5854 1.60688,1.17229 3.8283,0.24986 5.40926,-0.38693 0,0 0.63828,-0.4818 0.63828,-0.4818 v 0 c -1.03995,-0.88357 -2.95398,0.1476 -3.79878,-1.23165 -0.059,-0.19968 -0.16898,-0.39099 -0.17696,-0.59905 -0.0529,-1.37859 1.35324,-2.4318 2.11481,-3.3961 0,0 -2.7896,1.17692 -2.7896,1.17692 z" />
    <path
       style="fill:#000000;fill-opacity:1;fill-rule:nonzero;stroke:none;stroke-width:0.264583"
       id="path59"
       d="m 191.88052,87.595456 c 1.01736,-1.919645 1.7773,-3.96398 2.63584,-5.957679 0.69593,-1.557134 1.39396,-3.148574 2.56186,-4.413248 0.14826,-0.11794 0.28752,-0.248189 0.44478,-0.353824 0.1412,-0.09484 0.58873,-0.340048 0.44738,-0.245425 -0.60864,0.407453 -1.29694,0.705186 -1.85053,1.184767 -0.1267,0.109763 0.33575,-0.03314 0.50261,-0.01707 0.42359,0.04082 0.71236,0.191599 1.10599,0.34811 1.73879,0.75533 2.83053,2.128359 3.73994,3.732927 0.5054,0.863306 0.93491,1.920536 1.66153,2.637171 0.24837,0.244951 0.57022,0.401987 0.85533,0.60298 0,0 0.32525,-0.189238 0.32525,-0.189238 v 0 c -0.20135,-1.385459 -0.6676,-2.705502 -1.11977,-4.030157 -0.75195,-1.775225 -1.61289,-3.158292 -3.30188,-4.180806 -2.20163,-1.23726 -3.44679,-0.01011 -5.28335,1.55371 -1.09288,1.310447 -1.76719,2.887983 -2.4302,4.447496 -0.816,1.976114 -1.55624,3.995076 -2.57531,5.878393 0,0 2.28053,-0.998122 2.28053,-0.998122 z" />
    <path
       style="fill:#000000;fill-opacity:1;fill-rule:nonzero;stroke:none;stroke-width:0.264583"
       id="path61"
       d="m 257.79046,113.94461 c 0.71185,-1.86225 1.10732,-3.82301 1.529,-5.76558 0.41846,-2.04793 0.70301,-4.12028 0.95003,-6.19491 0.18528,-1.40745 0.29171,-2.822253 0.34287,-4.240306 -0.007,-0.785307 -0.20426,-1.54537 -0.45032,-2.285397 -0.14969,-0.393051 -0.25078,-0.802097 -0.35028,-1.210064 -0.0204,-0.05708 -0.0525,-0.142668 -0.0605,-0.188751 -2.60126,1.549771 -2.85361,1.061466 -1.86866,3.157006 0.63862,1.277112 1.66505,2.246067 2.75504,3.136092 1.40911,1.02211 2.84089,2.01981 4.33394,2.91596 0.96911,0.58548 2.00173,1.03386 3.10784,1.27372 0.8409,0.19099 1.70678,0.1825 2.56062,0.27093 0.48432,0.0664 0.98311,0.099 1.43737,0.29202 0.0784,-0.0296 0.28371,0.21676 0.14343,0.12929 -1.03301,0.71507 2.75262,-1.52074 1.46892,-0.8879 -1.77695,0.86682 -3.45615,1.91928 -5.16615,2.90961 -1.41708,0.78271 -2.79038,1.63656 -4.08719,2.60569 -1.26347,0.95889 -2.44728,2.01346 -3.62099,3.07839 -1.13379,0.9804 -2.15624,2.04743 -3.01547,3.27418 -0.4527,0.73274 -0.87213,1.49216 -1.20777,2.28651 -0.0257,-0.0138 -0.10172,-0.0257 -0.0772,-0.0414 0.85764,-0.5505 1.81429,-0.95415 2.61345,-1.58655 0.10334,-0.0818 -0.0964,-0.24534 -0.14246,-0.36882 -0.27601,-0.73968 -0.23559,-0.88187 -0.8097,-1.48043 -0.16949,-0.12854 -0.33897,-0.25707 -0.50846,-0.38561 0,0 -0.75085,0.40291 -0.75085,0.40291 v 0 c -0.0847,0.26428 -0.16932,0.52856 -0.25399,0.79283 -0.0627,0.26861 -0.15742,0.53172 -0.18813,0.80584 -0.0922,0.82321 0.48103,6.02743 2.95222,0.56177 0.35009,-0.76524 0.72245,-1.52267 1.20437,-2.2157 0.8686,-1.20203 1.92172,-2.23122 3.03359,-3.20975 1.16456,-1.0575 2.35211,-2.09097 3.60775,-3.04009 1.25452,-0.91983 2.57384,-1.73967 3.92557,-2.50924 0.77684,-0.46662 2.97113,-1.716 -0.69398,0.3639 -0.3089,0.17531 0.61309,-0.35908 0.9243,-0.53027 0.11557,-0.0636 0.23256,-0.12449 0.34885,-0.18674 0.91665,-0.44609 2.56699,-0.64972 2.56693,-1.73913 -0.0762,-0.15768 -0.22664,-0.18988 -0.37592,-0.28647 -0.46355,-0.21164 -0.96731,-0.29544 -1.47105,-0.3501 -0.79955,-0.11335 -1.59406,-0.25531 -2.39427,-0.36294 -1.0845,-0.2202 -2.09582,-0.63571 -3.04062,-1.21709 -1.45463,-0.90338 -2.87269,-1.87393 -4.203,-2.953193 -1.02506,-0.891047 -2.03016,-1.830884 -2.62086,-3.078972 -0.88704,-1.995874 0.41663,-1.960573 -2.84171,-0.568047 0.0184,0.05946 0.0314,0.149783 0.0472,0.220036 0.12879,0.401322 0.2767,0.796006 0.40152,1.198573 0.24811,0.705503 0.43757,1.434044 0.4395,2.187569 -0.002,1.391274 -0.0974,2.781014 -0.24641,4.163984 -0.24028,2.06406 -0.51993,4.12498 -0.93393,6.16239 -0.38785,1.91901 -0.77324,3.85068 -1.472,5.68589 0,0 2.15751,-0.99161 2.15751,-0.99161 z" />
    <path
       style="fill:#000000;fill-opacity:1;fill-rule:nonzero;stroke:none;stroke-width:0.264583"
       id="path63"
       d="m 322.06854,109.46335 c -0.19317,0.15362 -0.38632,0.30727 -0.57951,0.46087 -0.77767,0.61825 -1.55877,1.2261 -2.40097,1.75617 -0.32647,0.20548 -1.32492,0.79072 -0.99628,0.58876 0.71752,-0.44091 1.44197,-0.87045 2.16296,-1.30567 -2.61067,1.32278 -5.45761,2.03874 -8.2945,2.68622 -3.06824,0.66859 -6.17683,1.1226 -9.29968,1.43664 -3.29232,0.36256 -6.5931,0.39111 -9.88867,0.0948 -2.74344,-0.2954 -5.41536,-0.99185 -8.01341,-1.90152 -1.54345,-0.54378 -2.97675,-1.31169 -4.2192,-2.3754 -0.68456,-0.68849 -1.22868,-1.47972 -1.97792,-2.10382 -0.78867,-0.55518 -1.63066,-0.98314 -2.32318,-1.66436 -0.67328,-0.69046 -0.98393,-1.49359 -1.00502,-2.44485 0.15277,-1.55298 0.9769,-2.89074 1.85315,-4.13904 1.06291,-1.446513 2.4308,-2.58442 3.91644,-3.568697 0.25725,-0.151045 0.47344,-0.452355 0.77176,-0.453141 0.28427,-7.94e-4 -0.95292,0.286483 -0.72252,0.453012 0.24214,0.175032 0.53512,-0.266065 0.80563,-0.392944 0.79398,-0.372419 1.60546,-0.697092 2.42204,-1.01569 1.39177,-0.547719 2.84838,-0.86813 4.31806,-1.11683 1.33461,-0.194956 2.66401,-0.417835 3.98708,-0.679723 0.30946,0.0011 1.7272,-0.665358 1.03241,0.147654 -0.0911,0.229266 -0.48908,0.302397 -0.60074,0.500898 -0.17179,0.30538 0.12555,0.309097 0.28019,0.251693 1.1696,-0.531415 2.41375,-0.8089 3.67454,-1.017587 2.40316,-0.36638 4.80578,-0.08727 7.16682,0.396401 2.15376,0.476925 4.16375,1.378037 6.10002,2.411008 1.49577,0.825095 2.90574,1.793332 4.26892,2.819868 1.18526,0.880558 2.30405,1.844528 3.4788,2.738328 0.99486,0.71384 1.95566,1.46153 2.81924,2.33049 0.6958,0.69756 1.31683,1.45554 1.86674,2.27142 0.3932,0.61992 0.74787,1.26259 1.11588,1.89731 0.0639,0.2146 0.30948,0.30563 0.40068,0.49826 0.0475,0.10035 -0.003,0.23526 0.0582,0.32798 0.0733,0.11126 0.2118,0.16173 0.31771,0.2426 0,0 0.77666,-0.34919 0.77666,-0.34919 v 0 c 0.75218,-0.70372 1.46357,-1.37773 1.59202,-2.45226 -0.12366,-0.78204 -0.59049,-1.41732 -1.00922,-2.07518 -0.57336,-0.82867 -1.21058,-1.60805 -1.93302,-2.31272 -0.88162,-0.87941 -1.83947,-1.65812 -2.86962,-2.35973 -1.18118,-0.890351 -2.31402,-1.841311 -3.4989,-2.726961 -1.38293,-1.039702 -2.80763,-2.029445 -4.33719,-2.844171 -1.97807,-1.047319 -4.03198,-1.953368 -6.22477,-2.450814 -2.42311,-0.501129 -4.89005,-0.786905 -7.35796,-0.418097 -1.57289,0.274674 -3.12536,0.655044 -4.48537,1.531834 -0.45371,0.274645 -0.57163,0.873263 -0.43691,0.271748 0.16865,-0.595722 0.0418,-0.934863 -0.67323,-0.780526 -1.3375,0.240064 -2.66819,0.518554 -4.01516,0.705236 -1.50728,0.256882 -3.00085,0.594593 -4.42833,1.155436 -2.21475,0.853403 -4.35761,1.848189 -6.35119,3.155632 -1.58282,1.055103 -3.03842,2.26676 -4.22352,3.768433 -1.07696,1.35834 -2.1132,2.79905 -2.37347,4.55783 -0.0401,1.04891 0.25501,1.93681 0.98126,2.71482 0.63056,0.69979 1.40004,1.20494 2.11527,1.81105 0.65045,0.70234 1.11413,1.55556 1.80564,2.22497 1.24812,1.11428 2.71103,1.90161 4.27313,2.49602 2.61395,0.93628 5.29326,1.66388 8.06119,1.9726 3.28473,0.31746 6.57479,0.32523 9.86277,0.005 3.09827,-0.27016 6.18154,-0.696 9.22832,-1.32713 2.80705,-0.6018 5.63732,-1.24289 8.23169,-2.51222 2.82025,-1.58526 5.74406,-3.01018 8.12464,-5.23837 0,0 -3.33044,1.34581 -3.33044,1.34581 z" />
    <path
       style="fill:#000000;fill-opacity:1;fill-rule:nonzero;stroke:none;stroke-width:0.264583"
       id="path65"
       d="m 314.85206,103.06339 c -0.15386,-0.53451 -0.3629,-1.07725 -0.41312,-1.63649 -0.0364,-0.40547 0.12226,-0.53335 0.10588,-0.52365 -0.70387,0.41668 -1.37019,0.89372 -2.05531,1.34059 0.28221,0.28174 0.52502,0.56789 0.8644,0.78099 0,0 0.80931,-0.41017 0.80931,-0.41017 v 0 c 0.31403,-0.52335 0.60311,-1.06226 0.43677,-1.68978 -0.7905,0.35854 -1.60867,0.66143 -2.37149,1.07561 -0.14994,0.0814 0.25043,2.06267 0.33184,2.32097 0,0 2.29172,-1.25807 2.29172,-1.25807 z" />
    <path
       style="fill:#000000;fill-opacity:1;fill-rule:nonzero;stroke:none;stroke-width:0.264583"
       id="path67"
       d="m 322.87076,109.4353 c -1.33385,-0.85758 -2.75418,-1.55018 -4.2485,-2.07453 -1.6601,-0.52997 -3.30874,-0.51115 -4.96035,-0.009 -1.1656,0.71985 -3.04692,0.99103 -3.58762,2.33731 0,0 0.78227,-0.314 0.78227,-0.314 v 0 c 2.9736,-1.82192 -1.80134,0.93762 -0.0587,0.17502 1.5599,-0.34592 3.15145,-0.35681 4.72551,-0.0679 1.61642,0.37277 3.16828,0.91141 4.62114,1.72578 0,0 2.72629,-1.77261 2.72629,-1.77261 z" />
    <path
       style="fill:#000000;fill-opacity:1;fill-rule:nonzero;stroke:none;stroke-width:0.264583"
       id="path69"
       d="m 295.83513,105.91311 c -1.2985,1.09727 -2.49402,2.37124 -3.07726,3.98967 0.18208,1.41227 1.76644,0.94748 2.72177,0.69827 1.13966,-0.39854 0.51445,-0.1397 1.84999,-0.83568 0,0 0.6668,-0.51772 0.6668,-0.51772 v 0 c -0.20029,-0.29015 -0.0492,-0.17782 -0.54948,-0.13094 -0.38095,0.0238 -1.57663,0.21641 -1.83007,-0.20555 -0.055,-0.0916 -0.0353,-0.21069 -0.053,-0.31603 0.56817,-1.52084 1.72649,-2.71755 2.94855,-3.75337 0,0 -2.67727,1.07135 -2.67727,1.07135 z" />
    <path
       style="fill:#000000;fill-opacity:1;fill-rule:nonzero;stroke:none;stroke-width:0.264583"
       id="path71"
       d="m 297.99662,92.850986 c -0.75377,-1.853457 -1.26214,-3.824016 -1.28805,-5.829528 0.10129,-0.691335 0.32555,-1.343015 0.88035,-1.805636 0.1664,-0.13875 0.72996,-0.466677 0.55211,-0.342942 -2.05259,1.428104 -2.69833,1.296966 -1.14644,1.277151 2.49692,0.652979 4.52302,2.434479 6.63514,3.843902 2.00877,1.056441 0.91731,0.645305 3.29742,1.170522 0,0 0.57854,-0.366575 0.57854,-0.366575 v 0 c -0.61598,-1.745962 -0.1379,-0.962269 -1.46457,-2.332313 -1.99129,-1.61444 -4.05623,-3.369773 -6.54683,-4.122306 -2.00726,-0.117552 -0.82775,-0.189865 -4.11742,1.62234 -0.85122,0.468916 -1.15186,1.469766 -1.21438,2.365402 0.12755,2.026819 0.70485,3.995224 1.32104,5.922377 0,0 2.51309,-1.402394 2.51309,-1.402394 z" />
    <path
       style="fill:#000000;fill-opacity:1;fill-rule:nonzero;stroke:none;stroke-width:0.264583"
       id="path73"
       d="m 137.17334,102.11459 c -1.74412,1.25696 -2.78019,3.01686 -3.48316,5.00678 -0.4032,2.08728 -0.52736,4.83792 1.0635,6.52386 0.29346,0.31099 0.68464,0.51247 1.02696,0.76871 0.52824,0.0798 1.05647,0.15956 1.58471,0.23934 0,0 0.64158,-0.40188 0.64158,-0.40188 v 0 c -0.0247,-0.37398 -0.0494,-0.74796 -0.0741,-1.12193 -0.95852,-2.45346 -1.54108,-5.01967 -0.7738,-7.62136 0.77956,-1.9559 1.89109,-3.67571 3.70455,-4.82796 0,0 -3.69022,1.43444 -3.69022,1.43444 z" />
    <path
       style="fill:#000000;fill-opacity:1;fill-rule:nonzero;stroke:none;stroke-width:0.264583"
       id="path75"
       d="m 137.79379,120.54054 c 0.80697,-1.84247 1.86208,-3.62339 3.35735,-4.98198 -0.35666,0.22659 -0.89202,0.29652 -1.06999,0.67977 -0.10886,0.23441 0.51936,-0.086 0.77419,-0.0428 0.31636,0.0536 0.61794,0.18446 0.90525,0.32733 1.0854,0.53974 1.9451,1.41502 2.80735,2.24171 0.50212,0.6451 1.48324,1.3773 1.51536,2.30133 0.0238,0.68351 -0.83355,1.06736 -0.7188,0.99838 0.41139,-0.24729 0.78589,-0.55131 1.17883,-0.82697 -1.84384,0.46433 -3.75187,0.59645 -5.63196,0.85441 0,0 -0.58365,0.42221 -0.58365,0.42221 v 0 c 1.43678,0.41888 2.88648,0.55897 4.36071,0.18866 0.23494,-0.12671 2.89549,-1.13244 3.32294,-2.09726 0.50226,-1.13368 -0.97664,-2.28615 -1.58349,-2.98736 -0.84835,-0.7955 -3.33053,-3.29308 -4.68349,-2.71787 -0.8849,0.37622 -1.66453,0.96316 -2.49679,1.44475 -1.34645,1.43747 -2.3402,3.19036 -3.12959,4.98768 0,0 1.67578,-0.79199 1.67578,-0.79199 z" />
    <path
       style="fill:#000000;fill-opacity:1;fill-rule:nonzero;stroke:none;stroke-width:0.264583"
       id="path77"
       d="m 248.05479,110.45001 c -1.0048,-0.44175 -2.24859,-0.66674 -3.04128,-1.48998 -0.15648,-0.16251 -0.26013,-0.36866 -0.3902,-0.55299 -0.72584,-2.17954 0.52461,-4.35836 1.51406,-6.24588 0.53234,-0.87018 1.03473,-1.75751 1.52161,-2.653636 0,0 -0.69216,0.2926 -0.69216,0.2926 v 0 c -1.10303,1.015546 -2.20558,2.033186 -2.99645,3.326616 -1.20931,1.95466 -2.58294,4.3178 -1.6765,6.65766 0.15124,0.20356 0.27315,0.43262 0.45372,0.61067 0.8887,0.8763 2.28833,1.09081 3.4493,1.33747 0,0 1.8579,-1.28253 1.8579,-1.28253 z" />
    <path
       style="fill:#000000;fill-opacity:1;fill-rule:nonzero;stroke:none;stroke-width:0.264583"
       id="path79"
       d="m 242.70707,100.13579 c 1.08708,-0.688588 2.17388,-1.377809 3.25461,-2.076354 0.26864,-0.173641 1.09721,-0.651664 0.80392,-0.524 -0.38658,0.16827 -0.72451,0.431411 -1.08676,0.647116 1.47057,-0.747522 2.35898,0.321487 3.2097,1.412827 0.69703,1.023261 1.6029,2.321571 1.14716,3.607851 -0.0895,0.0788 -0.37061,0.29776 -0.26848,0.23627 4.33309,-2.6087 3.67887,-1.85511 2.30676,-1.6687 -0.65305,0.0887 -1.22772,0.0788 -1.87915,0.25449 -0.52587,0.14179 -1.02944,0.3561 -1.54417,0.53416 0,0 -0.65808,0.47806 -0.65808,0.47806 v 0 c 0.0148,0.17837 -0.0509,0.38365 0.0444,0.53513 0.0949,0.15078 0.2982,0.19861 0.46182,0.26912 1.73764,0.74889 3.28867,-0.99054 4.64841,-1.90334 0.0982,-0.0659 0.0503,-0.2312 0.0755,-0.34679 -0.38912,-1.26298 -1.42085,-2.22723 -2.10669,-3.33191 -1.0021,-1.154597 -2.18545,-2.19233 -3.76492,-1.431108 -2.11777,1.238243 -4.15126,2.574719 -6.20717,3.910128 0,0 1.56314,-0.60295 1.56314,-0.60295 z" />
    <path
       style="fill:#000000;fill-opacity:1;fill-rule:nonzero;stroke:none;stroke-width:0.264583"
       id="path81"
       d="m 121.9403,116.8222 c -0.1507,-2.02096 -0.17513,-4.04944 -0.23121,-6.07479 -0.0785,-1.43407 0.5941,-2.37565 1.77534,-3.08903 -3.00463,1.51752 0.0321,0.38308 0.57339,0.22515 0,0 0.67502,-0.49586 0.67502,-0.49586 v 0 c -0.1153,-0.0738 -0.21225,-0.19174 -0.34589,-0.22152 -1.06583,-0.23754 -2.43098,1.51958 -3.00385,1.30719 -1.29111,0.82852 -2.0804,1.81257 -1.92098,3.42789 0.0724,2.04724 0.18381,4.09901 0.0726,6.14668 0,0 2.40559,-1.22571 2.40559,-1.22571 z" />
    <path
       style="fill:#000000;fill-opacity:1;fill-rule:nonzero;stroke:none;stroke-width:0.264583"
       id="path83"
       d="m 118.88956,114.55561 c 1.35582,-0.45982 2.65846,-1.02628 3.93356,-1.67436 0,0 0.66203,-0.51729 0.66203,-0.51729 v 0 c -1.07397,-0.0994 -2.04249,0.70955 -3.04895,0.97673 0,0 -1.54664,1.21492 -1.54664,1.21492 z" />
    <path
       style="fill:#000000;fill-opacity:1;fill-rule:nonzero;stroke:none;stroke-width:0.264583"
       id="path85"
       d="m 237.29118,121.88553 c 0.19647,-1.78706 0.49636,-3.55865 0.84172,-5.32207 0.17205,-0.66315 0.2253,-1.52621 0.83433,-1.97063 0.12481,-0.0911 0.53886,-0.29945 0.41416,-0.2082 -0.3632,0.26577 -0.75537,0.48949 -1.13306,0.73424 0.80239,-0.23151 1.6034,-0.15954 1.9049,0.69872 0.0448,0.90309 -0.46267,1.64555 -0.97792,2.33978 -0.29382,0.76285 0.42781,1.42791 0.74324,2.08384 0.51053,1.24558 0.40073,2.41227 -0.33894,3.5181 -0.17167,0.16038 -0.32865,0.3381 -0.51501,0.48115 -0.19364,0.14863 -0.82106,0.52821 -0.61987,0.38996 0.34355,-0.23609 1.09705,-0.26974 1.04718,-0.6836 -0.0461,-0.38286 -0.71448,0.29163 -1.07938,0.41635 -0.37216,0.1272 -0.75346,0.2259 -1.13018,0.33886 0,0 -0.63501,0.47688 -0.63501,0.47688 v 0 c 2.0671,0.19359 3.67077,-0.96545 5.0613,-2.36397 0.63053,-1.19519 0.55665,-2.35808 -0.0549,-3.56486 -0.22495,-0.40652 -0.27836,-0.53122 -0.53879,-0.89965 -0.23865,-0.33763 -0.51941,-0.49708 -0.28168,-0.91174 0.52388,-0.75667 1.08298,-1.5559 0.95323,-2.52369 -0.33191,-0.95388 -1.17223,-1.12593 -2.10333,-0.91425 -2.11588,1.0962 -2.79807,1.04404 -3.10542,3.31972 -0.3029,1.75404 -0.51352,3.52283 -0.7449,5.2874 0,0 1.45833,-0.72234 1.45833,-0.72234 z" />
  </g>
  <g
     inkscape:groupmode="layer"
     id="layer3"
     inkscape:label="fish_bod"
     style="display:inline">
    <path
       style="fill:#ffd42a;stroke:none;stroke-width:0.264583px;stroke-linecap:butt;stroke-linejoin:miter;stroke-opacity:1"
       d="m 73.705359,87.123513 c 0,0 1.355968,-1.970985 1.41741,-3.023809 0.06144,-1.052824 -0.518314,-2.09377 -0.944941,-2.83482 -0.426627,-0.74105 -1.41741,-1.606399 -1.41741,-1.606399 -0.977879,-1.108263 4.576528,-0.219151 6.709077,0.47247 2.927212,0.949343 4.257265,1.159689 6.236608,2.36235 1.979343,1.202661 5.38616,4.819197 5.38616,4.819197 z"
       id="path1172"
       sodipodi:nodetypes="czzsszcc" />
    <ellipse
       style="fill:#ff6600;stroke-width:0.250824"
       id="path88"
       cx="82.661888"
       cy="100.23232"
       rx="23.711382"
       ry="14.693588" />
    <path
       style="fill:#ff6600;stroke:none;stroke-width:0.264583px;stroke-linecap:butt;stroke-linejoin:miter;stroke-opacity:1"
       d="m 70.863007,87.464297 c -2.301896,0.828023 -6.696792,2.384461 -9.387243,3.874883 -2.690451,1.490422 -3.676029,2.914569 -4.42069,4.451383 -0.744662,1.536814 -1.248303,3.185994 -1.116762,5.144537 0.13154,1.95854 0.898097,4.22609 4.109102,6.43121 3.211004,2.20511 8.866,4.34785 11.693393,5.55295 2.827393,1.2051 2.827393,1.47237 3.361926,-1.7795 0.534532,-3.25188 1.603588,-10.02257 1.439387,-14.726122 -0.164201,-4.703554 -1.561825,-7.339822 -2.365102,-8.60838 -0.803277,-1.268558 -1.012116,-1.168984 -3.314011,-0.340961 z"
       id="path957"
       inkscape:path-effect="#path-effect959"
       inkscape:original-d="m 72.955946,86.735904 c -4.394722,1.556735 -8.789618,3.113173 -13.184957,4.669409 -0.985373,1.424498 -1.970951,2.848645 -2.956853,4.272614 -0.503407,1.649547 -1.007048,3.298727 -1.510985,4.947743 0.766857,2.26792 1.533416,4.53547 2.299727,6.80281 5.655485,2.14309 11.31048,4.28583 16.965322,6.42834 2.65e-4,0.26754 2.65e-4,0.53481 0,0.80181 1.069364,-6.7707 2.138421,-13.54139 3.207234,-20.312484 -1.397418,-2.636113 -2.795042,-5.272381 -4.19296,-7.90897 -0.208582,0.09984 -0.41742,0.199416 -0.626528,0.298728 z"
       sodipodi:nodetypes="cccccccccc" />
    <path
       style="opacity:1;mix-blend-mode:lighten;fill:url(#linearGradient1164);fill-opacity:1;stroke:none;stroke-width:0.264583px;stroke-linecap:butt;stroke-linejoin:miter;stroke-opacity:1"
       d="m 60.101718,92.208512 c -5.053374,-1.532921 -7.215166,-2.171057 -10.429842,-3.519414 -3.332389,-1.39773 -7.807814,-5.937567 -9.345078,-5.495063 0,0 1.799807,3.629715 2.65198,5.467215 1.131812,2.440473 2.682974,4.753498 3.267622,7.379349 0.644335,2.893926 0.506947,6.076831 0.189426,8.892351 -0.317521,2.81552 -1.973202,7.86202 -1.973202,7.86202 1.795964,1.16699 4.421432,-2.04493 6.677314,-2.96103 1.200255,-0.48742 2.391307,-1.02221 3.645221,-1.34761 1.548905,-0.40196 4.514771,-1.99092 6.444927,-1.77442 0,0 -3.703736,-1.43405 -4.66321,-8.344073 1.729692,-2.68967 3.534842,-6.159325 3.534842,-6.159325 z"
       id="path961"
       sodipodi:nodetypes="ccsccccccccc" />
    <ellipse
       style="opacity:1;fill:#ffffff;fill-opacity:1;fill-rule:nonzero;stroke:none;stroke-width:0.264583;stroke-opacity:1"
       id="path1180"
       ry="3.4017856"
       rx="3.5435266"
       cy="95.15551"
       cx="96.620163" />
    <circle
       style="opacity:1;fill:#000000;fill-opacity:1;fill-rule:nonzero;stroke:none;stroke-width:0.264583;stroke-opacity:1"
       id="path1182"
       sodipodi:type="arc"
       sodipodi:cx="97.706848"
       sodipodi:cy="95.627975"
       sodipodi:rx="1.6063989"
       sodipodi:ry="1.6063989"
       sodipodi:start="0"
       sodipodi:end="6.2618902"
       sodipodi:arc-type="arc"
       d="m 99.313247,95.627975 a 1.6063989,1.6063989 0 0 1 -1.597847,1.606377 1.6063989,1.6063989 0 0 1 -1.61486,-1.589273 1.6063989,1.6063989 0 0 1 1.580653,-1.623298 1.6063989,1.6063989 0 0 1 1.63169,1.571989"
       sodipodi:open="true" />
    <path
       style="fill:#ffd42a;stroke:none;stroke-width:0.264583px;stroke-linecap:butt;stroke-linejoin:miter;stroke-opacity:1"
       d="m 77.579615,115.18824 c 1.013841,-0.73867 1.481,-2.03672 2.362353,-2.92931 0.833074,-0.8437 1.323142,-1.75749 2.740327,-2.26786 1.417185,-0.51037 5.480654,0 5.480654,0 0,0 2.551338,1.22842 2.456845,2.92931 -0.09449,1.70089 -3.023811,5.38616 -3.023811,5.38616 -2.346655,1.8247 -5.23278,4.11627 -9.638391,3.96875 -2.337447,-0.36376 -3.938194,-0.005 -6.04762,-3.49627 2.430024,-1.21636 3.6687,-2.19776 5.669643,-3.59078 z"
       id="path1184"
       sodipodi:nodetypes="csscscccc" />
    <path
       style="display:inline;fill:#ffd42a;stroke:none;stroke-width:0.228905px;stroke-linecap:butt;stroke-linejoin:miter;stroke-opacity:1"
       d="m 145.61632,88.29247 c 0,0 1.35597,-1.475262 1.41741,-2.26329 0.0614,-0.788028 -0.51832,-1.567165 -0.94494,-2.121833 -0.42663,-0.554668 -1.41741,-1.202373 -1.41741,-1.202373 -0.97788,-0.829523 4.57652,-0.164032 6.70907,0.353639 2.92721,0.710573 4.25727,0.868015 6.23661,1.768194 1.97934,0.90018 5.38616,3.607119 5.38616,3.607119 z"
       id="path1172-2"
       sodipodi:nodetypes="czzsszcc" />
    <ellipse
       style="display:inline;fill:#ff6600;stroke-width:0.250824"
       id="path88-4"
       cx="154.57285"
       cy="101.35374"
       rx="23.711382"
       ry="14.693588" />
    <path
       style="display:inline;fill:#ff6600;stroke:none;stroke-width:0.264583px;stroke-linecap:butt;stroke-linejoin:miter;stroke-opacity:1"
       d="m 142.77396,88.585722 c -2.30189,0.828024 -6.69678,2.384462 -9.38723,3.874882 -2.69045,1.49042 -3.67603,2.91457 -4.42069,4.451386 -0.74467,1.536816 -1.24831,3.186 -1.11677,5.14454 0.13154,1.95854 0.8981,4.22609 4.1091,6.43121 3.21101,2.20511 8.86601,4.34785 11.6934,5.55295 2.82739,1.2051 2.82739,1.47237 3.36192,-1.7795 0.53453,-3.25188 1.60359,-10.02257 1.43939,-14.726123 -0.1642,-4.703555 -1.56183,-7.339826 -2.3651,-8.608385 -0.80328,-1.268559 -1.01212,-1.168985 -3.31402,-0.34096 z"
       id="path957-8"
       inkscape:path-effect="#path-effect1233"
       inkscape:original-d="m 144.8669,87.857328 c -4.39472,1.556735 -8.78961,3.113174 -13.18495,4.669414 -0.98537,1.42449 -1.97095,2.84864 -2.95685,4.27261 -0.50341,1.64955 -1.00705,3.298738 -1.51099,4.947748 0.76686,2.26792 1.53342,4.53547 2.29973,6.80281 5.65548,2.14309 11.31048,4.28583 16.96532,6.42834 2.6e-4,0.26754 2.6e-4,0.53481 0,0.80181 1.06936,-6.7707 2.13842,-13.54139 3.20723,-20.312488 -1.39742,-2.63611 -2.79504,-5.272383 -4.19296,-7.908972 -0.20858,0.09984 -0.41742,0.199416 -0.62653,0.298728 z"
       sodipodi:nodetypes="cccccccccc" />
    <path
       style="display:inline;mix-blend-mode:lighten;fill:url(#linearGradient1235);fill-opacity:1;stroke:none;stroke-width:0.242306px;stroke-linecap:butt;stroke-linejoin:miter;stroke-opacity:1"
       d="m 132.20651,93.066357 c -4.18531,-1.552309 -5.97574,-2.19851 -8.6382,-3.563925 -2.75995,-1.415409 -7.22254,-6.579632 -8.49573,-6.131531 0,0 2.24659,4.242589 2.95238,6.103331 0.93738,2.471336 2.22208,4.813622 2.7063,7.472685 0.53366,2.930542 0.79785,4.358313 0.53487,7.209443 -0.26297,2.85113 -6.26447,5.97709 -6.26447,5.97709 1.48746,1.18175 7.91416,1.70897 9.78253,0.78128 0.99407,-0.49359 1.98053,-1.03514 3.01904,-1.36466 1.28283,-0.40704 3.73922,-2.0161 5.33782,-1.79686 0,0 -3.06751,-1.45219 -3.86216,-8.449617 1.43256,-2.72369 2.92762,-6.237236 2.92762,-6.237236 z"
       id="path961-3"
       sodipodi:nodetypes="ccsccccccccc" />
    <ellipse
       style="display:inline;fill:#ffffff;fill-opacity:1;fill-rule:nonzero;stroke:none;stroke-width:0.264583;stroke-opacity:1"
       id="path1180-3"
       ry="3.4017856"
       rx="3.5435266"
       cy="96.276932"
       cx="168.53111" />
    <circle
       style="display:inline;fill:#000000;fill-opacity:1;fill-rule:nonzero;stroke:none;stroke-width:0.264583;stroke-opacity:1"
       id="path1182-5"
       sodipodi:type="arc"
       sodipodi:cx="169.6178"
       sodipodi:cy="96.74939"
       sodipodi:rx="1.6063989"
       sodipodi:ry="1.6063989"
       sodipodi:start="0"
       sodipodi:end="6.2618902"
       sodipodi:arc-type="arc"
       sodipodi:open="true"
       d="m 171.2242,96.74939 a 1.6063989,1.6063989 0 0 1 -1.59785,1.606376 1.6063989,1.6063989 0 0 1 -1.61486,-1.589272 1.6063989,1.6063989 0 0 1 1.58065,-1.623298 1.6063989,1.6063989 0 0 1 1.63169,1.571988" />
    <path
       style="display:inline;fill:#ffd42a;stroke:none;stroke-width:0.230614px;stroke-linecap:butt;stroke-linejoin:miter;stroke-opacity:1"
       d="m 149.49057,115.00634 c 1.01384,-0.56118 1.481,-1.54732 2.36236,-2.22543 0.83307,-0.64096 1.32314,-1.33518 2.74032,-1.72291 1.41719,-0.38774 5.48066,0 5.48066,0 0,0 2.55133,0.93324 2.45684,2.22542 -0.0945,1.29218 -3.02381,4.09192 -3.02381,4.09192 -2.34665,1.38624 -5.23278,3.12716 -9.63839,3.0151 -2.33745,-0.27636 -3.93819,-0.004 -6.04762,-2.65616 2.43002,-0.92408 3.6687,-1.66965 5.66964,-2.72794 z"
       id="path1184-1"
       sodipodi:nodetypes="csscscccc" />
    <path
       style="display:inline;fill:#ffd42a;stroke:none;stroke-width:0.295367px;stroke-linecap:butt;stroke-linejoin:miter;stroke-opacity:1"
       d="m 219.1007,89.132372 c 0,0 1.35597,-2.456313 1.41741,-3.768378 0.0614,-1.312079 -0.51832,-2.609345 -0.94494,-3.532871 -0.42663,-0.923526 -1.41741,-2.001958 -1.41741,-2.001958 -0.97788,-1.381161 4.57653,-0.273114 6.70907,0.588811 2.92722,1.183109 4.25727,1.44525 6.23661,2.944059 1.97935,1.498802 5.38616,6.005864 5.38616,6.005864 z"
       id="path1172-6"
       sodipodi:nodetypes="czzsszcc" />
    <ellipse
       style="display:inline;fill:#ff6600;stroke-width:0.250824"
       id="path88-3"
       cx="228.05722"
       cy="102.28771"
       rx="23.711382"
       ry="14.693588" />
    <path
       style="display:inline;fill:#ff6600;stroke:none;stroke-width:0.264583px;stroke-linecap:butt;stroke-linejoin:miter;stroke-opacity:1"
       d="m 216.25835,89.519702 c -2.3019,0.828022 -6.69679,2.384456 -9.38724,3.874876 -2.69045,1.490421 -3.67603,2.914572 -4.42069,4.451389 -0.74467,1.536817 -1.24831,3.185993 -1.11677,5.144533 0.13154,1.95854 0.8981,4.22609 4.1091,6.43121 3.21101,2.20511 8.86601,4.34785 11.6934,5.55295 2.82739,1.2051 2.82739,1.47237 3.36192,-1.7795 0.53453,-3.25188 1.60359,-10.02257 1.43939,-14.726121 -0.16421,-4.703554 -1.56183,-7.339818 -2.3651,-8.608381 -0.80326,-1.268562 -1.01212,-1.168979 -3.31401,-0.340956 z"
       id="path957-0"
       inkscape:path-effect="#path-effect1269"
       inkscape:original-d="m 218.35129,88.791309 c -4.39473,1.55673 -8.78962,3.11317 -13.18496,4.6694 -0.98537,1.4245 -1.97095,2.84865 -2.95685,4.27262 -0.50341,1.649552 -1.00705,3.298731 -1.51099,4.947741 0.76686,2.26792 1.53342,4.53547 2.29973,6.80281 5.65548,2.14309 11.31048,4.28583 16.96532,6.42834 2.6e-4,0.26754 2.6e-4,0.53481 0,0.80181 1.06936,-6.7707 2.13842,-13.54139 3.20723,-20.312481 -1.39741,-2.63612 -2.79504,-5.27238 -4.19296,-7.90897 -0.20858,0.0998 -0.41742,0.19941 -0.62652,0.29873 z"
       sodipodi:nodetypes="cccccccccc" />
    <path
       style="display:inline;mix-blend-mode:lighten;fill:url(#linearGradient1271);fill-opacity:1;stroke:none;stroke-width:0.282694px;stroke-linecap:butt;stroke-linejoin:miter;stroke-opacity:1"
       d="m 205.3373,94.263909 c -5.76886,-1.53292 -6.81931,-2.738013 -10.11115,-3.04694 -3.8042,-1.39773 -11.46462,-1.685338 -13.21953,-1.242828 0,0 4.13349,1.739829 5.10632,3.577329 1.29206,2.44047 2.87385,4.942489 3.54128,7.56834 0.73555,2.89393 -0.55521,4.56492 -0.91768,7.38044 -0.36249,2.81552 -2.44158,9.94089 -2.44158,9.94089 2.05025,1.16699 5.23644,-5.6357 7.81171,-6.5518 1.37019,-0.48742 2.72988,-1.02221 4.16133,-1.34761 1.7682,-0.40196 5.15399,-1.99092 7.35743,-1.77442 0,0 -3.29269,-1.30042 -4.38801,-8.21044 1.97459,-2.689666 3.09988,-6.292961 3.09988,-6.292961 z"
       id="path961-9"
       sodipodi:nodetypes="ccsccccccccc" />
    <ellipse
       style="display:inline;fill:#ffffff;fill-opacity:1;fill-rule:nonzero;stroke:none;stroke-width:0.264583;stroke-opacity:1"
       id="path1180-2"
       ry="3.4017856"
       rx="3.5435266"
       cy="97.210907"
       cx="242.0155" />
    <circle
       style="display:inline;fill:#000000;fill-opacity:1;fill-rule:nonzero;stroke:none;stroke-width:0.264583;stroke-opacity:1"
       id="path1182-0"
       sodipodi:type="arc"
       sodipodi:cx="243.10219"
       sodipodi:cy="97.683372"
       sodipodi:rx="1.6063989"
       sodipodi:ry="1.6063989"
       sodipodi:start="0"
       sodipodi:end="6.2618902"
       sodipodi:arc-type="arc"
       sodipodi:open="true"
       d="m 244.70859,97.683372 a 1.6063989,1.6063989 0 0 1 -1.59785,1.606377 1.6063989,1.6063989 0 0 1 -1.61486,-1.589273 1.6063989,1.6063989 0 0 1 1.58065,-1.623298 1.6063989,1.6063989 0 0 1 1.63169,1.571989" />
    <path
       style="display:inline;fill:#ffd42a;stroke:none;stroke-width:0.272549px;stroke-linecap:butt;stroke-linejoin:miter;stroke-opacity:1"
       d="m 222.97495,117.57517 c 1.01385,-0.78382 1.481,-2.16121 2.36236,-3.10836 0.83307,-0.89527 1.32314,-1.8649 2.74032,-2.40647 1.41719,-0.54157 5.48066,0 5.48066,0 0,0 2.55134,1.30349 2.45684,3.10835 -0.0945,1.80484 -3.02381,5.71537 -3.02381,5.71537 -2.34665,1.93623 -5.23278,4.36786 -9.63839,4.21133 -2.33745,-0.386 -3.93819,-0.005 -6.04762,-3.70998 2.43003,-1.29069 3.6687,-2.33208 5.66964,-3.81024 z"
       id="path1184-7"
       sodipodi:nodetypes="csscscccc" />
    <circle
       style="opacity:1;fill:#d4aa00;fill-opacity:1;fill-rule:nonzero;stroke:none;stroke-width:0.273497;stroke-opacity:1"
       id="path1282"
       cx="79.375"
       cy="160.07292"
       r="17.197916" />
    <circle
       style="opacity:1;fill:#ffcc00;fill-opacity:1;fill-rule:nonzero;stroke:none;stroke-width:0.299463;stroke-opacity:1"
       id="path1280"
       cx="79.375"
       cy="160.07292"
       r="15.875" />
    <path
       style="fill:#d4aa00;stroke:none;stroke-width:0.264583px;stroke-linecap:butt;stroke-linejoin:miter;stroke-opacity:1"
       d="m 77.705259,174.39869 2.837365,1.33103 -0.361765,-12.89576 c 0,0 3.358716,0.11805 4.621864,-0.80377 1.593685,-1.16304 2.181974,-3.35307 2.744264,-5.24419 0.232986,-0.78358 0.234843,-2.4412 0.234843,-2.4412 l 1.029242,0.59006 -1.791215,-3.63316 -1.721734,3.53125 1.10486,-0.58526 c 0,0 -0.05517,1.37694 -0.259164,2.02676 -0.477386,1.52067 -0.832056,3.44287 -2.213078,4.23856 -0.988898,0.56977 -3.420542,-0.15124 -3.420542,-0.15124 l -0.4009,-9.68655 1.791217,0.79509 -2.593026,-4.40323 -2.680799,4.59222 1.745356,-0.98408 -0.128884,9.75337 c 0,0 -1.757102,-0.14544 -2.472245,-0.60136 -0.714938,-0.45579 -1.184081,-1.2415 -1.5881,-1.98692 -0.732388,-1.35126 -1.446359,-4.37821 -1.446359,-4.37821 l 1.280995,0.4016 -2.138156,-3.23156 -1.74397,3.2788 1.100115,-0.59128 c 0,0 0.406284,3.43656 1.085987,5.00123 0.524042,1.20634 1.203945,2.4421 2.246776,3.24359 0.938442,0.72126 3.340869,1.20272 3.340869,1.20272 z"
       id="path1284"
       sodipodi:nodetypes="cccaacccccaacccccccaacccccaacc" />
    <ellipse
       style="opacity:1;fill:#d5f6ff;fill-opacity:1;fill-rule:nonzero;stroke:url(#radialGradient1384);stroke-width:0.529167;stroke-miterlimit:4;stroke-dasharray:none;stroke-opacity:1"
       id="path1374"
       cx="226.14343"
       cy="175.32883"
       rx="7.5169554"
       ry="7.5503635" />
    <ellipse
       style="opacity:1;fill:#ebfffb;fill-opacity:1;fill-rule:nonzero;stroke:#ffffff;stroke-width:0.718002;stroke-miterlimit:4;stroke-dasharray:none;stroke-opacity:0.349398"
       id="path1386"
       cx="228.84953"
       cy="171.31976"
       rx="1.9769216"
       ry="1.8432868" />
    <path
       style="fill:#d5f6ff;fill-opacity:1;stroke:none;stroke-width:0.264583px;stroke-linecap:butt;stroke-linejoin:miter;stroke-opacity:1"
       d="m 223.23689,171.11932 c 0,0 4.02135,-2.20021 6.41446,-0.3341 3.18816,2.48609 0.13363,6.54812 0.13363,6.54812 z"
       id="path1388"
       sodipodi:nodetypes="cscc" />
  </g>
</svg>
